<svg xmlns="http://www.w3.org/2000/svg" width="1333.3" height="1333.3"><defs><clipPath clipPathUnits="userSpaceOnUse" id="a"><path d="M0 0h1000v1000H0z"/></clipPath><clipPath clipPathUnits="userSpaceOnUse" id="b"><path d="M-26 1017H9v-36h-35z"/></clipPath><clipPath clipPathUnits="userSpaceOnUse" id="c"><path d="M15 1027h35v-35H15z"/></clipPath><clipPath clipPathUnits="userSpaceOnUse" id="d"><path d="M0 1002h35v-36H0z"/></clipPath><clipPath clipPathUnits="userSpaceOnUse" id="e"><path d="M-30 950H5v-36h-35z"/></clipPath><clipPath clipPathUnits="userSpaceOnUse" id="f"><path d="M41 1012h35v-35H41z"/></clipPath><clipPath clipPathUnits="userSpaceOnUse" id="g"><path d="M26 987h35v-36H26z"/></clipPath><clipPath clipPathUnits="userSpaceOnUse" id="h"><path d="M11 961h35v-36H11z"/></clipPath><clipPath clipPathUnits="userSpaceOnUse" id="i"><path d="M-4 935h35v-36H-4z"/></clipPath><clipPath clipPathUnits="userSpaceOnUse" id="j"><path d="M-19 909h35v-36h-35z"/></clipPath><clipPath clipPathUnits="userSpaceOnUse" id="k"><path d="M-34 883H1v-36h-35z"/></clipPath><clipPath clipPathUnits="userSpaceOnUse" id="l"><path d="M82 1023h35v-35H82z"/></clipPath><clipPath clipPathUnits="userSpaceOnUse" id="m"><path d="M67 997h35v-35H67z"/></clipPath><clipPath clipPathUnits="userSpaceOnUse" id="n"><path d="M52 972h35v-36H52z"/></clipPath><clipPath clipPathUnits="userSpaceOnUse" id="o"><path d="M22 920h35v-36H22z"/></clipPath><clipPath clipPathUnits="userSpaceOnUse" id="p"><path d="M7 894h35v-36H7z"/></clipPath><clipPath clipPathUnits="userSpaceOnUse" id="q"><path d="M-8 868h35v-36H-8z"/></clipPath><clipPath clipPathUnits="userSpaceOnUse" id="r"><path d="M108 1008h35v-35h-35z"/></clipPath><clipPath clipPathUnits="userSpaceOnUse" id="s"><path d="M93 982h35v-35H93z"/></clipPath><clipPath clipPathUnits="userSpaceOnUse" id="t"><path d="M63 931h35v-36H63z"/></clipPath><clipPath clipPathUnits="userSpaceOnUse" id="u"><path d="M18 853h35v-36H18z"/></clipPath><clipPath clipPathUnits="userSpaceOnUse" id="v"><path d="M3 827h35v-36H3z"/></clipPath><clipPath clipPathUnits="userSpaceOnUse" id="w"><path d="M-12 801h35v-36h-35z"/></clipPath><clipPath clipPathUnits="userSpaceOnUse" id="x"><path d="M-27 775H8v-36h-35z"/></clipPath><clipPath clipPathUnits="userSpaceOnUse" id="y"><path d="M149 1019h35v-35h-35z"/></clipPath><clipPath clipPathUnits="userSpaceOnUse" id="z"><path d="M134 993h35v-35h-35z"/></clipPath><clipPath clipPathUnits="userSpaceOnUse" id="A"><path d="M104 942h35v-36h-35z"/></clipPath><clipPath clipPathUnits="userSpaceOnUse" id="B"><path d="M59 864h35v-36H59z"/></clipPath><clipPath clipPathUnits="userSpaceOnUse" id="C"><path d="M44 838h35v-36H44z"/></clipPath><clipPath clipPathUnits="userSpaceOnUse" id="D"><path d="M29 812h35v-36H29z"/></clipPath><clipPath clipPathUnits="userSpaceOnUse" id="E"><path d="M14 786h35v-36H14z"/></clipPath><clipPath clipPathUnits="userSpaceOnUse" id="F"><path d="M-1 760h35v-36H-1z"/></clipPath><clipPath clipPathUnits="userSpaceOnUse" id="G"><path d="M-16 734h35v-36h-35z"/></clipPath><clipPath clipPathUnits="userSpaceOnUse" id="H"><path d="M190 1030h35v-35h-35z"/></clipPath><clipPath clipPathUnits="userSpaceOnUse" id="I"><path d="M175 1004h35v-35h-35z"/></clipPath><clipPath clipPathUnits="userSpaceOnUse" id="J"><path d="M160 978h35v-35h-35z"/></clipPath><clipPath clipPathUnits="userSpaceOnUse" id="K"><path d="M130 927h35v-36h-35z"/></clipPath><clipPath clipPathUnits="userSpaceOnUse" id="L"><path d="M85 849h35v-36H85z"/></clipPath><clipPath clipPathUnits="userSpaceOnUse" id="M"><path d="M70 823h35v-36H70z"/></clipPath><clipPath clipPathUnits="userSpaceOnUse" id="N"><path d="M55 797h35v-36H55z"/></clipPath><clipPath clipPathUnits="userSpaceOnUse" id="O"><path d="M40 771h35v-36H40z"/></clipPath><clipPath clipPathUnits="userSpaceOnUse" id="P"><path d="M10 719h35v-36H10z"/></clipPath><clipPath clipPathUnits="userSpaceOnUse" id="Q"><path d="M-20 667h35v-35h-35z"/></clipPath><clipPath clipPathUnits="userSpaceOnUse" id="R"><path d="M-35 641H0v-35h-35z"/></clipPath><clipPath clipPathUnits="userSpaceOnUse" id="S"><path d="M186 963h35v-35h-35z"/></clipPath><clipPath clipPathUnits="userSpaceOnUse" id="T"><path d="M156 912h35v-36h-35z"/></clipPath><clipPath clipPathUnits="userSpaceOnUse" id="U"><path d="M141 886h35v-36h-35z"/></clipPath><clipPath clipPathUnits="userSpaceOnUse" id="V"><path d="M111 834h35v-36h-35z"/></clipPath><clipPath clipPathUnits="userSpaceOnUse" id="W"><path d="M96 808h35v-36H96z"/></clipPath><clipPath clipPathUnits="userSpaceOnUse" id="X"><path d="M81 782h35v-36H81z"/></clipPath><clipPath clipPathUnits="userSpaceOnUse" id="Y"><path d="M66 756h35v-36H66z"/></clipPath><clipPath clipPathUnits="userSpaceOnUse" id="Z"><path d="M36 704h35v-36H36z"/></clipPath><clipPath clipPathUnits="userSpaceOnUse" id="aa"><path d="M21 678h35v-35H21z"/></clipPath><clipPath clipPathUnits="userSpaceOnUse" id="ab"><path d="M6 652h35v-35H6z"/></clipPath><clipPath clipPathUnits="userSpaceOnUse" id="ac"><path d="M-24 600h35v-35h-35z"/></clipPath><clipPath clipPathUnits="userSpaceOnUse" id="ad"><path d="M257 1026h35v-35h-35z"/></clipPath><clipPath clipPathUnits="userSpaceOnUse" id="ae"><path d="M242 1000h35v-35h-35z"/></clipPath><clipPath clipPathUnits="userSpaceOnUse" id="af"><path d="M182 897h35v-36h-35z"/></clipPath><clipPath clipPathUnits="userSpaceOnUse" id="ag"><path d="M92 741h35v-36H92z"/></clipPath><clipPath clipPathUnits="userSpaceOnUse" id="ah"><path d="M77 715h35v-36H77z"/></clipPath><clipPath clipPathUnits="userSpaceOnUse" id="ai"><path d="M62 689h35v-36H62z"/></clipPath><clipPath clipPathUnits="userSpaceOnUse" id="aj"><path d="M32 637h35v-35H32z"/></clipPath><clipPath clipPathUnits="userSpaceOnUse" id="ak"><path d="M-13 559h35v-35h-35z"/></clipPath><clipPath clipPathUnits="userSpaceOnUse" id="al"><path d="M-28 533H7v-35h-35z"/></clipPath><clipPath clipPathUnits="userSpaceOnUse" id="am"><path d="M283 1011h35v-35h-35z"/></clipPath><clipPath clipPathUnits="userSpaceOnUse" id="an"><path d="M238 933h35v-35h-35z"/></clipPath><clipPath clipPathUnits="userSpaceOnUse" id="ao"><path d="M223 907h35v-35h-35z"/></clipPath><clipPath clipPathUnits="userSpaceOnUse" id="ap"><path d="M163 804h35v-36h-35z"/></clipPath><clipPath clipPathUnits="userSpaceOnUse" id="aq"><path d="M133 752h35v-36h-35z"/></clipPath><clipPath clipPathUnits="userSpaceOnUse" id="ar"><path d="M103 700h35v-36h-35z"/></clipPath><clipPath clipPathUnits="userSpaceOnUse" id="as"><path d="M43 596h35v-35H43z"/></clipPath><clipPath clipPathUnits="userSpaceOnUse" id="at"><path d="M324 1022h35v-35h-35z"/></clipPath><clipPath clipPathUnits="userSpaceOnUse" id="au"><path d="M219 841h35v-36h-35z"/></clipPath><clipPath clipPathUnits="userSpaceOnUse" id="av"><path d="M204 815h35v-36h-35z"/></clipPath><clipPath clipPathUnits="userSpaceOnUse" id="aw"><path d="M174 763h35v-36h-35z"/></clipPath><clipPath clipPathUnits="userSpaceOnUse" id="ax"><path d="M114 659h35v-36h-35z"/></clipPath><clipPath clipPathUnits="userSpaceOnUse" id="ay"><path d="M84 607h35v-35H84z"/></clipPath><clipPath clipPathUnits="userSpaceOnUse" id="az"><path d="M69 581h35v-35H69z"/></clipPath><clipPath clipPathUnits="userSpaceOnUse" id="aA"><path d="M39 529h35v-35H39z"/></clipPath><clipPath clipPathUnits="userSpaceOnUse" id="aB"><path d="M365 1033h35v-35h-35z"/></clipPath><clipPath clipPathUnits="userSpaceOnUse" id="aC"><path d="M290 903h35v-35h-35z"/></clipPath><clipPath clipPathUnits="userSpaceOnUse" id="aD"><path d="M245 826h35v-36h-35z"/></clipPath><clipPath clipPathUnits="userSpaceOnUse" id="aE"><path d="M215 774h35v-36h-35z"/></clipPath><clipPath clipPathUnits="userSpaceOnUse" id="aF"><path d="M170 696h35v-36h-35z"/></clipPath><clipPath clipPathUnits="userSpaceOnUse" id="aG"><path d="M155 670h35v-36h-35z"/></clipPath><clipPath clipPathUnits="userSpaceOnUse" id="aH"><path d="M20 436h35v-35H20z"/></clipPath><clipPath clipPathUnits="userSpaceOnUse" id="aI"><path d="M5 410h35v-35H5z"/></clipPath><clipPath clipPathUnits="userSpaceOnUse" id="aJ"><path d="M-25 358h35v-35h-35z"/></clipPath><clipPath clipPathUnits="userSpaceOnUse" id="aK"><path d="M376 992h35v-35h-35z"/></clipPath><clipPath clipPathUnits="userSpaceOnUse" id="aL"><path d="M346 940h35v-35h-35z"/></clipPath><clipPath clipPathUnits="userSpaceOnUse" id="aM"><path d="M286 837h35v-36h-35z"/></clipPath><clipPath clipPathUnits="userSpaceOnUse" id="aN"><path d="M226 733h35v-36h-35z"/></clipPath><clipPath clipPathUnits="userSpaceOnUse" id="aO"><path d="M181 655h35v-36h-35z"/></clipPath><clipPath clipPathUnits="userSpaceOnUse" id="aP"><path d="M76 473h35v-35H76z"/></clipPath><clipPath clipPathUnits="userSpaceOnUse" id="aQ"><path d="M46 421h35v-35H46z"/></clipPath><clipPath clipPathUnits="userSpaceOnUse" id="aR"><path d="M31 395h35v-35H31z"/></clipPath><clipPath clipPathUnits="userSpaceOnUse" id="aS"><path d="M-14 317h35v-35h-35z"/></clipPath><clipPath clipPathUnits="userSpaceOnUse" id="aT"><path d="M327 847h35v-35h-35z"/></clipPath><clipPath clipPathUnits="userSpaceOnUse" id="aU"><path d="M267 744h35v-36h-35z"/></clipPath><clipPath clipPathUnits="userSpaceOnUse" id="aV"><path d="M252 718h35v-36h-35z"/></clipPath><clipPath clipPathUnits="userSpaceOnUse" id="aW"><path d="M222 666h35v-36h-35z"/></clipPath><clipPath clipPathUnits="userSpaceOnUse" id="aX"><path d="M207 640h35v-36h-35z"/></clipPath><clipPath clipPathUnits="userSpaceOnUse" id="aY"><path d="M147 536h35v-35h-35z"/></clipPath><clipPath clipPathUnits="userSpaceOnUse" id="aZ"><path d="M72 406h35v-35H72z"/></clipPath><clipPath clipPathUnits="userSpaceOnUse" id="ba"><path d="M42 354h35v-35H42z"/></clipPath><clipPath clipPathUnits="userSpaceOnUse" id="bb"><path d="M12 302h35v-35H12z"/></clipPath><clipPath clipPathUnits="userSpaceOnUse" id="bc"><path d="M-18 250h35v-35h-35z"/></clipPath><clipPath clipPathUnits="userSpaceOnUse" id="bd"><path d="M368 858h35v-35h-35z"/></clipPath><clipPath clipPathUnits="userSpaceOnUse" id="be"><path d="M353 832h35v-35h-35z"/></clipPath><clipPath clipPathUnits="userSpaceOnUse" id="bf"><path d="M248 651h35v-36h-35z"/></clipPath><clipPath clipPathUnits="userSpaceOnUse" id="bg"><path d="M218 599h35v-36h-35z"/></clipPath><clipPath clipPathUnits="userSpaceOnUse" id="bh"><path d="M203 573h35v-35h-35z"/></clipPath><clipPath clipPathUnits="userSpaceOnUse" id="bi"><path d="M188 547h35v-35h-35z"/></clipPath><clipPath clipPathUnits="userSpaceOnUse" id="bj"><path d="M143 469h35v-35h-35z"/></clipPath><clipPath clipPathUnits="userSpaceOnUse" id="bk"><path d="M23 261h35v-35H23z"/></clipPath><clipPath clipPathUnits="userSpaceOnUse" id="bl"><path d="M469 973h35v-35h-35z"/></clipPath><clipPath clipPathUnits="userSpaceOnUse" id="bm"><path d="M439 921h35v-35h-35z"/></clipPath><clipPath clipPathUnits="userSpaceOnUse" id="bn"><path d="M394 843h35v-35h-35z"/></clipPath><clipPath clipPathUnits="userSpaceOnUse" id="bo"><path d="M334 740h35v-36h-35z"/></clipPath><clipPath clipPathUnits="userSpaceOnUse" id="bp"><path d="M304 688h35v-36h-35z"/></clipPath><clipPath clipPathUnits="userSpaceOnUse" id="bq"><path d="M169 454h35v-35h-35z"/></clipPath><clipPath clipPathUnits="userSpaceOnUse" id="br"><path d="M94 324h35v-35H94z"/></clipPath><clipPath clipPathUnits="userSpaceOnUse" id="bs"><path d="M79 298h35v-35H79z"/></clipPath><clipPath clipPathUnits="userSpaceOnUse" id="bt"><path d="M886 737h35v-35h-35z"/></clipPath><clipPath clipPathUnits="userSpaceOnUse" id="bu"><path d="M856 685h35v-35h-35z"/></clipPath><clipPath clipPathUnits="userSpaceOnUse" id="bv"><path d="M811 607h35v-35h-35z"/></clipPath><clipPath clipPathUnits="userSpaceOnUse" id="bw"><path d="M781 555h35v-35h-35z"/></clipPath><clipPath clipPathUnits="userSpaceOnUse" id="bx"><path d="M766 529h35v-35h-35z"/></clipPath><clipPath clipPathUnits="userSpaceOnUse" id="by"><path d="M691 400h35v-36h-35z"/></clipPath><clipPath clipPathUnits="userSpaceOnUse" id="bz"><path d="M601 244h35v-36h-35z"/></clipPath><clipPath clipPathUnits="userSpaceOnUse" id="bA"><path d="M972 826h35v-35h-35z"/></clipPath><clipPath clipPathUnits="userSpaceOnUse" id="bB"><path d="M852 618h35v-35h-35z"/></clipPath><clipPath clipPathUnits="userSpaceOnUse" id="bC"><path d="M822 566h35v-35h-35z"/></clipPath><clipPath clipPathUnits="userSpaceOnUse" id="bD"><path d="M807 540h35v-35h-35z"/></clipPath><clipPath clipPathUnits="userSpaceOnUse" id="bE"><path d="M792 514h35v-35h-35z"/></clipPath><clipPath clipPathUnits="userSpaceOnUse" id="bF"><path d="M878 603h35v-35h-35z"/></clipPath><clipPath clipPathUnits="userSpaceOnUse" id="bG"><path d="M848 551h35v-35h-35z"/></clipPath><clipPath clipPathUnits="userSpaceOnUse" id="bH"><path d="M773 422h35v-36h-35z"/></clipPath><clipPath clipPathUnits="userSpaceOnUse" id="bI"><path d="M743 370h35v-36h-35z"/></clipPath><clipPath clipPathUnits="userSpaceOnUse" id="bJ"><path d="M653 214h35v-36h-35z"/></clipPath><clipPath clipPathUnits="userSpaceOnUse" id="bK"><path d="M608 136h35v-35h-35z"/></clipPath><clipPath clipPathUnits="userSpaceOnUse" id="bL"><path d="M548 32h35V-3h-35z"/></clipPath><clipPath clipPathUnits="userSpaceOnUse" id="bM"><path d="M994 744h35v-35h-35z"/></clipPath><clipPath clipPathUnits="userSpaceOnUse" id="bN"><path d="M949 666h35v-35h-35z"/></clipPath><clipPath clipPathUnits="userSpaceOnUse" id="bO"><path d="M814 432h35v-35h-35z"/></clipPath><clipPath clipPathUnits="userSpaceOnUse" id="bP"><path d="M799 407h35v-36h-35z"/></clipPath><clipPath clipPathUnits="userSpaceOnUse" id="bQ"><path d="M784 381h35v-36h-35z"/></clipPath><clipPath clipPathUnits="userSpaceOnUse" id="bR"><path d="M694 225h35v-36h-35z"/></clipPath><clipPath clipPathUnits="userSpaceOnUse" id="bS"><path d="M679 199h35v-36h-35z"/></clipPath><clipPath clipPathUnits="userSpaceOnUse" id="bT"><path d="M664 173h35v-35h-35z"/></clipPath><clipPath clipPathUnits="userSpaceOnUse" id="bU"><path d="M649 147h35v-35h-35z"/></clipPath><clipPath clipPathUnits="userSpaceOnUse" id="bV"><path d="M634 121h35V86h-35z"/></clipPath><clipPath clipPathUnits="userSpaceOnUse" id="bW"><path d="M619 95h35V60h-35z"/></clipPath><clipPath clipPathUnits="userSpaceOnUse" id="bX"><path d="M990 677h35v-35h-35z"/></clipPath><clipPath clipPathUnits="userSpaceOnUse" id="bY"><path d="M885 495h35v-35h-35z"/></clipPath><clipPath clipPathUnits="userSpaceOnUse" id="bZ"><path d="M870 469h35v-35h-35z"/></clipPath><clipPath clipPathUnits="userSpaceOnUse" id="ca"><path d="M855 443h35v-35h-35z"/></clipPath><clipPath clipPathUnits="userSpaceOnUse" id="cb"><path d="M735 236h35v-36h-35z"/></clipPath><clipPath clipPathUnits="userSpaceOnUse" id="cc"><path d="M690 158h35v-35h-35z"/></clipPath><clipPath clipPathUnits="userSpaceOnUse" id="cd"><path d="M675 132h35V97h-35z"/></clipPath><clipPath clipPathUnits="userSpaceOnUse" id="ce"><path d="M645 80h35V45h-35z"/></clipPath><clipPath clipPathUnits="userSpaceOnUse" id="cf"><path d="M615 28h35V-7h-35z"/></clipPath><clipPath clipPathUnits="userSpaceOnUse" id="cg"><path d="M986 610h35v-35h-35z"/></clipPath><clipPath clipPathUnits="userSpaceOnUse" id="ch"><path d="M971 584h35v-35h-35z"/></clipPath><clipPath clipPathUnits="userSpaceOnUse" id="ci"><path d="M941 532h35v-35h-35z"/></clipPath><clipPath clipPathUnits="userSpaceOnUse" id="cj"><path d="M926 506h35v-35h-35z"/></clipPath><clipPath clipPathUnits="userSpaceOnUse" id="ck"><path d="M911 480h35v-35h-35z"/></clipPath><clipPath clipPathUnits="userSpaceOnUse" id="cl"><path d="M896 454h35v-35h-35z"/></clipPath><clipPath clipPathUnits="userSpaceOnUse" id="cm"><path d="M866 402h35v-35h-35z"/></clipPath><clipPath clipPathUnits="userSpaceOnUse" id="cn"><path d="M851 377h35v-36h-35z"/></clipPath><clipPath clipPathUnits="userSpaceOnUse" id="co"><path d="M821 325h35v-36h-35z"/></clipPath><clipPath clipPathUnits="userSpaceOnUse" id="cp"><path d="M791 273h35v-36h-35z"/></clipPath><clipPath clipPathUnits="userSpaceOnUse" id="cq"><path d="M776 247h35v-36h-35z"/></clipPath><clipPath clipPathUnits="userSpaceOnUse" id="cr"><path d="M746 195h35v-36h-35z"/></clipPath><clipPath clipPathUnits="userSpaceOnUse" id="cs"><path d="M686 91h35V56h-35z"/></clipPath><clipPath clipPathUnits="userSpaceOnUse" id="ct"><path d="M656 39h35V4h-35z"/></clipPath><clipPath clipPathUnits="userSpaceOnUse" id="cu"><path d="M982 543h35v-35h-35z"/></clipPath><clipPath clipPathUnits="userSpaceOnUse" id="cv"><path d="M967 517h35v-35h-35z"/></clipPath><clipPath clipPathUnits="userSpaceOnUse" id="cw"><path d="M952 491h35v-35h-35z"/></clipPath><clipPath clipPathUnits="userSpaceOnUse" id="cx"><path d="M847 310h35v-36h-35z"/></clipPath><clipPath clipPathUnits="userSpaceOnUse" id="cy"><path d="M817 258h35v-36h-35z"/></clipPath><clipPath clipPathUnits="userSpaceOnUse" id="cz"><path d="M802 232h35v-36h-35z"/></clipPath><clipPath clipPathUnits="userSpaceOnUse" id="cA"><path d="M727 102h35V67h-35z"/></clipPath><clipPath clipPathUnits="userSpaceOnUse" id="cB"><path d="M697 50h35V15h-35z"/></clipPath><clipPath clipPathUnits="userSpaceOnUse" id="cC"><path d="M993 502h35v-35h-35z"/></clipPath><clipPath clipPathUnits="userSpaceOnUse" id="cD"><path d="M963 450h35v-35h-35z"/></clipPath><clipPath clipPathUnits="userSpaceOnUse" id="cE"><path d="M948 424h35v-35h-35z"/></clipPath><clipPath clipPathUnits="userSpaceOnUse" id="cF"><path d="M903 347h35v-36h-35z"/></clipPath><clipPath clipPathUnits="userSpaceOnUse" id="cG"><path d="M798 165h35v-36h-35z"/></clipPath><clipPath clipPathUnits="userSpaceOnUse" id="cH"><path d="M753 87h35V52h-35z"/></clipPath><clipPath clipPathUnits="userSpaceOnUse" id="cI"><path d="M738 61h35V26h-35z"/></clipPath><clipPath clipPathUnits="userSpaceOnUse" id="cJ"><path d="M708 9h35v-35h-35z"/></clipPath><clipPath clipPathUnits="userSpaceOnUse" id="cK"><path d="M989 435h35v-35h-35z"/></clipPath><clipPath clipPathUnits="userSpaceOnUse" id="cL"><path d="M974 409h35v-35h-35z"/></clipPath><clipPath clipPathUnits="userSpaceOnUse" id="cM"><path d="M959 383h35v-35h-35z"/></clipPath><clipPath clipPathUnits="userSpaceOnUse" id="cN"><path d="M944 357h35v-35h-35z"/></clipPath><clipPath clipPathUnits="userSpaceOnUse" id="cO"><path d="M929 332h35v-36h-35z"/></clipPath><clipPath clipPathUnits="userSpaceOnUse" id="cP"><path d="M914 306h35v-36h-35z"/></clipPath><clipPath clipPathUnits="userSpaceOnUse" id="cQ"><path d="M884 254h35v-36h-35z"/></clipPath><clipPath clipPathUnits="userSpaceOnUse" id="cR"><path d="M839 176h35v-36h-35z"/></clipPath><clipPath clipPathUnits="userSpaceOnUse" id="cS"><path d="M809 124h35V88h-35z"/></clipPath><clipPath clipPathUnits="userSpaceOnUse" id="cT"><path d="M794 98h35V63h-35z"/></clipPath><clipPath clipPathUnits="userSpaceOnUse" id="cU"><path d="M764 46h35V11h-35z"/></clipPath><clipPath clipPathUnits="userSpaceOnUse" id="cV"><path d="M749 20h35v-35h-35z"/></clipPath><clipPath clipPathUnits="userSpaceOnUse" id="cW"><path d="M970 342h35v-35h-35z"/></clipPath><clipPath clipPathUnits="userSpaceOnUse" id="cX"><path d="M955 317h35v-36h-35z"/></clipPath><clipPath clipPathUnits="userSpaceOnUse" id="cY"><path d="M940 291h35v-36h-35z"/></clipPath><clipPath clipPathUnits="userSpaceOnUse" id="cZ"><path d="M910 239h35v-36h-35z"/></clipPath><clipPath clipPathUnits="userSpaceOnUse" id="da"><path d="M850 135h35V99h-35z"/></clipPath><clipPath clipPathUnits="userSpaceOnUse" id="db"><path d="M835 109h35V73h-35z"/></clipPath><clipPath clipPathUnits="userSpaceOnUse" id="dc"><path d="M820 83h35V48h-35z"/></clipPath><clipPath clipPathUnits="userSpaceOnUse" id="dd"><path d="M805 57h35V22h-35z"/></clipPath><clipPath clipPathUnits="userSpaceOnUse" id="de"><path d="M790 31h35V-4h-35z"/></clipPath><clipPath clipPathUnits="userSpaceOnUse" id="df"><path d="M996 327h35v-35h-35z"/></clipPath><clipPath clipPathUnits="userSpaceOnUse" id="dg"><path d="M966 276h35v-36h-35z"/></clipPath><clipPath clipPathUnits="userSpaceOnUse" id="dh"><path d="M936 224h35v-36h-35z"/></clipPath><clipPath clipPathUnits="userSpaceOnUse" id="di"><path d="M921 198h35v-36h-35z"/></clipPath><clipPath clipPathUnits="userSpaceOnUse" id="dj"><path d="M906 172h35v-36h-35z"/></clipPath><clipPath clipPathUnits="userSpaceOnUse" id="dk"><path d="M891 146h35v-36h-35z"/></clipPath><clipPath clipPathUnits="userSpaceOnUse" id="dl"><path d="M861 94h35V58h-35z"/></clipPath><clipPath clipPathUnits="userSpaceOnUse" id="dm"><path d="M831 42h35V7h-35z"/></clipPath><clipPath clipPathUnits="userSpaceOnUse" id="dn"><path d="M816 16h35v-35h-35z"/></clipPath><clipPath clipPathUnits="userSpaceOnUse" id="do"><path d="M992 261h35v-36h-35z"/></clipPath><clipPath clipPathUnits="userSpaceOnUse" id="dp"><path d="M977 235h35v-36h-35z"/></clipPath><clipPath clipPathUnits="userSpaceOnUse" id="dq"><path d="M947 183h35v-36h-35z"/></clipPath><clipPath clipPathUnits="userSpaceOnUse" id="dr"><path d="M932 157h35v-36h-35z"/></clipPath><clipPath clipPathUnits="userSpaceOnUse" id="ds"><path d="M917 131h35V95h-35z"/></clipPath><clipPath clipPathUnits="userSpaceOnUse" id="dt"><path d="M902 105h35V69h-35z"/></clipPath><clipPath clipPathUnits="userSpaceOnUse" id="du"><path d="M887 79h35V43h-35z"/></clipPath><clipPath clipPathUnits="userSpaceOnUse" id="dv"><path d="M842 1h35v-35h-35z"/></clipPath><clipPath clipPathUnits="userSpaceOnUse" id="dw"><path d="M988 194h35v-36h-35z"/></clipPath><clipPath clipPathUnits="userSpaceOnUse" id="dx"><path d="M913 64h35V28h-35z"/></clipPath><clipPath clipPathUnits="userSpaceOnUse" id="dy"><path d="M883 12h35v-35h-35z"/></clipPath><clipPath clipPathUnits="userSpaceOnUse" id="dz"><path d="M999 153h35v-36h-35z"/></clipPath><clipPath clipPathUnits="userSpaceOnUse" id="dA"><path d="M984 127h35V91h-35z"/></clipPath><clipPath clipPathUnits="userSpaceOnUse" id="dB"><path d="M969 101h35V65h-35z"/></clipPath><clipPath clipPathUnits="userSpaceOnUse" id="dC"><path d="M939 49h35V13h-35z"/></clipPath><clipPath clipPathUnits="userSpaceOnUse" id="dD"><path d="M924 23h35v-35h-35z"/></clipPath><clipPath clipPathUnits="userSpaceOnUse" id="dE"><path d="M995 86h35V50h-35z"/></clipPath><clipPath clipPathUnits="userSpaceOnUse" id="dF"><path d="M980 60h35V24h-35z"/></clipPath><clipPath clipPathUnits="userSpaceOnUse" id="dG"><path d="M965 34h35V-2h-35z"/></clipPath><clipPath clipPathUnits="userSpaceOnUse" id="dH"><path d="M950 8h35v-35h-35z"/></clipPath><clipPath clipPathUnits="userSpaceOnUse" id="dI"><path d="M991 19h35v-36h-35z"/></clipPath></defs><path d="M0 1333h1333V0H0z" fill="#fff"/><g clip-path="url(#a)" transform="matrix(1.33333 0 0 -1.33333 0 1333)"><g clip-path="url(#b)" opacity=".4"><path d="M-14 1015c0 2 2 2 3 1l19-11c2-1 2-2 1-3l-11-19c-1-2-2-2-4-1l-18 11c-2 1-2 2-1 3z" fill="#060"/></g><g clip-path="url(#c)" opacity=".9"><path d="M27 1026c0 2 2 2 3 1l19-11c2-1 2-2 1-3l-11-19c-1-2-2-2-4-1l-18 11c-2 1-2 2-1 3z" fill="#00d000"/></g><g clip-path="url(#d)" opacity=".1"><path d="M12 1000c0 2 2 2 3 1l19-11c2-1 2-2 1-3l-11-19c-1-2-2-2-4-1L2 978c-2 1-2 2-1 3z" fill="#00b800"/></g><g clip-path="url(#e)" opacity=".3"><path d="M-18 948c0 2 2 2 3 1l19-11c2-1 2-2 1-3l-11-19c-1-2-2-2-4-1l-18 11c-2 1-2 2-1 3z" fill="#00e800"/></g><g clip-path="url(#f)" opacity=".6"><path d="M53 1011c0 2 2 2 3 1l19-11c1-1 2-2 1-3l-11-19c-1-2-2-2-4-1l-18 11c-2 1-2 2-1 3z" fill="#007900"/></g><g clip-path="url(#g)" opacity=".3"><path d="M38 985c0 2 2 2 3 1l19-11c1-1 2-2 1-3l-11-19c-1-2-2-2-4-1l-18 11c-2 1-2 2-1 3z" fill="#003f00"/></g><g clip-path="url(#h)" opacity=".4"><path d="M23 959c0 2 2 2 3 1l19-11c1-1 2-2 1-3l-11-19c-1-2-2-2-4-1l-18 11c-2 1-2 2-1 3z" fill="#00f500"/></g><g clip-path="url(#i)" opacity=".4"><path d="M8 933c0 2 2 2 3 1l19-11c1-1 2-2 1-3l-11-19c-1-2-2-2-4-1l-18 11c-2 1-2 2-1 3z" fill="#001200"/></g><g clip-path="url(#j)" opacity=".6"><path d="M-7 907c0 2 2 2 3 1l19-11c1-1 2-2 1-3L5 875c-1-2-2-2-4-1l-18 11c-2 1-2 2-1 3z" fill="#008f00"/></g><g clip-path="url(#k)" opacity=".3"><path d="M-22 881c0 2 2 2 3 1l19-11c1-1 2-2 1-3l-11-19c-1-2-2-2-4-1l-18 11c-2 1-2 2-1 3z" fill="#00e400"/></g><g clip-path="url(#l)" opacity=".3"><path d="M94 1022c0 2 2 2 3 1l19-11c1-1 2-2 1-4l-11-18c-1-2-2-2-4-1l-18 11c-2 0-2 2-1 3z" fill="#008c00"/></g><g clip-path="url(#m)" opacity=".1"><path d="M79 996c0 2 2 2 3 1l19-11c1-1 2-2 1-3l-11-19c-1-2-2-2-4-1l-18 11c-2 1-2 2-1 3z" fill="#00d800"/></g><g clip-path="url(#n)" opacity=".2"><path d="M64 970c0 2 2 2 3 1l19-11c1-1 2-2 1-3l-11-19c-1-2-2-2-4-1l-18 11c-2 1-2 2-1 3z" fill="#000900"/></g><g clip-path="url(#o)" opacity=".8"><path d="M34 918c0 2 2 2 3 1l19-11c1-1 2-2 1-3l-11-19c-1-2-2-2-4-1l-18 11c-2 1-2 2-1 3z" fill="#002f00"/></g><g clip-path="url(#p)" opacity=".8"><path d="M19 892c0 2 2 2 3 1l19-11c1-1 2-2 1-3l-11-19c-1-2-2-2-4-1L9 870c-2 1-2 2-1 3z" fill="#00e100"/></g><g clip-path="url(#q)" opacity=".7"><path d="M4 866c0 2 2 2 3 1l19-11c1-1 2-2 1-3l-11-19c-1-2-2-2-4-1l-18 11c-2 1-2 2-1 3z" fill="#007f00"/></g><g clip-path="url(#r)" opacity=".6"><path d="M119 1007c1 2 3 2 4 1l19-11c1-1 2-2 1-4l-11-18c-1-2-2-2-4-1l-18 11c-2 0-2 2-1 3z" fill="#00ab00"/></g><g clip-path="url(#s)" opacity=".4"><path d="M104 981c1 2 3 2 4 1l19-11c1-1 2-2 1-3l-11-19c-1-2-2-2-4-1l-18 11c-2 1-2 2-1 3z" fill="#001800"/></g><g clip-path="url(#t)" opacity=".4"><path d="M74 929c1 2 3 2 4 1l19-11c1-1 2-2 1-3l-11-19c-1-2-2-2-4-1l-18 11c-2 1-2 2-1 3z" fill="#005200"/></g><g clip-path="url(#u)" opacity=".3"><path d="M29 851c1 2 3 2 4 1l19-11c1-1 2-2 1-3l-11-19c-1-2-2-2-4-1l-18 11c-2 1-2 2-1 3z" fill="#00d200"/></g><g clip-path="url(#v)" opacity=".5"><path d="M14 825c1 2 3 2 4 1l19-11c1-1 2-2 1-3l-11-19c-1-2-2-2-4-1L5 803c-2 1-2 2-1 3z" fill="#00f000"/></g><g clip-path="url(#w)" opacity=".4"><path d="M-1 799c1 2 3 2 4 1l19-11c1-1 2-2 1-3l-11-19c-1-2-2-2-4-1l-18 11c-2 1-2 2-1 3z" fill="#00ba00"/></g><g clip-path="url(#x)" opacity=".4"><path d="M-16 773c1 2 3 2 4 1l19-11c1-1 2-2 1-3l-11-19c-1-2-2-2-4-1l-18 11c-2 1-2 2-1 3z" fill="#006700"/></g><g clip-path="url(#y)" opacity=".6"><path d="M160 1018c1 2 3 2 4 1l19-11c1-1 2-2 1-4l-11-18c-1-2-2-2-4-1l-18 11c-2 0-2 2-1 3z" fill="#004600"/></g><g clip-path="url(#z)" opacity=".3"><path d="M145 992c1 2 3 2 4 1l19-11c1-1 2-2 1-4l-11-18c-1-2-2-2-4-1l-18 11c-2 0-2 2-1 3z" fill="#00b500"/></g><g clip-path="url(#A)" opacity=".6"><path d="M115 940c1 2 3 2 4 1l19-11c1-1 2-2 1-3l-11-19c-1-2-2-2-4-1l-18 11c-2 1-2 2-1 3z" fill="#005c00"/></g><g clip-path="url(#B)" opacity=".2"><path d="M70 862c1 2 3 2 4 1l19-11c1-1 2-2 1-3l-11-19c-1-2-2-2-4-1l-18 11c-2 1-2 2-1 3z" fill="#007e00"/></g><g clip-path="url(#C)" opacity=".1"><path d="M55 836c1 2 3 2 4 1l19-11c1-1 2-2 1-3l-11-19c-1-2-2-2-4-1l-18 11c-2 1-2 2-1 3z" fill="#005400"/></g><g clip-path="url(#D)" opacity=".6"><path d="M40 810c1 2 3 2 4 1l19-11c1-1 2-2 1-3l-11-19c-1-2-2-2-4-1l-18 11c-2 1-2 2-1 3z" fill="#00df00"/></g><g clip-path="url(#E)" opacity=".6"><path d="M25 784c1 2 3 2 4 1l19-11c1-1 2-2 1-3l-11-19c-1-2-2-2-4-1l-18 11c-2 1-2 2-1 3z" fill="#00d400"/></g><g clip-path="url(#F)" opacity=".2"><path d="M10 758c1 2 3 2 4 1l19-11c1-1 2-2 1-3l-11-19c-1-2-2-2-4-1L1 736c-2 1-2 2-1 3z" fill="#006e00"/></g><g clip-path="url(#G)" opacity=".5"><path d="M-5 732c1 2 3 2 4 1l19-11c1-1 2-2 1-3L8 700c-1-2-2-2-4-1l-18 11c-2 1-2 2-1 3z" fill="#006200"/></g><g clip-path="url(#H)" opacity=".4"><path d="M201 1029c1 2 3 2 4 1l19-11c1-1 2-2 1-4l-11-18c-1-2-2-2-4-1l-18 11c-2 0-2 2-1 3z" fill="#005e00"/></g><g clip-path="url(#I)" opacity=".6"><path d="M186 1003c1 2 3 2 4 1l19-11c1-1 2-2 1-4l-11-18c-1-2-2-2-4-1l-18 11c-2 0-2 2-1 3z" fill="#004300"/></g><g clip-path="url(#J)" opacity=".4"><path d="M171 977c1 2 3 2 4 1l19-11c1-1 2-2 1-4l-11-18c-1-2-2-2-4-1l-18 11c-2 0-2 2-1 3z" fill="#00cd00"/></g><g clip-path="url(#K)" opacity=".3"><path d="M141 925c1 2 3 2 4 1l19-11c1-1 2-2 1-3l-11-19c-1-2-2-2-4-1l-18 11c-2 1-2 2-1 3z" fill="#001900"/></g><g clip-path="url(#L)" opacity=".3"><path d="M96 847c1 2 3 2 4 1l19-11c1-1 2-2 1-3l-11-19c-1-2-2-2-4-1l-18 11c-2 1-2 2-1 3z" fill="#00c800"/></g><g clip-path="url(#M)" opacity=".1"><path d="M81 821c1 2 3 2 4 1l19-11c1-1 2-2 1-3l-11-19c-1-2-2-2-4-1l-18 11c-2 1-2 2-1 3z" fill="green"/></g><g clip-path="url(#N)" opacity=".4"><path d="M66 795c1 2 3 2 4 1l19-11c1-1 2-2 1-3l-11-19c-1-2-2-2-4-1l-18 11c-2 1-2 2-1 3z" fill="#060"/></g><g clip-path="url(#O)" opacity=".1"><path d="M51 769c1 2 3 2 4 1l19-11c1-1 2-2 1-3l-11-19c-1-2-2-2-4-1l-18 11c-2 1-2 2-1 3z" fill="#00d100"/></g><g clip-path="url(#P)" opacity=".2"><path d="M21 717c1 2 3 2 4 1l19-11c1-1 2-2 1-3l-11-19c-1-2-2-2-4-1l-18 11c-2 1-2 2-1 3z" fill="#00f500"/></g><g clip-path="url(#Q)" opacity=".6"><path d="M-9 665c1 2 3 2 4 1l19-11c1 0 2-2 1-3L4 633c-1-2-2-2-4-1l-18 11c-2 1-2 2-1 4z" fill="#0c0"/></g><g clip-path="url(#R)" opacity=".6"><path d="M-24 639c1 2 3 2 4 1l19-11c1 0 2-2 1-3l-11-19c-1-2-2-2-4-1l-18 11c-2 1-2 2-1 4z" fill="#00b900"/></g><g clip-path="url(#S)" opacity=".6"><path d="M197 962c1 2 3 2 4 1l19-11c1-1 2-2 1-4l-11-18c-1-2-2-2-4-1l-18 11c-2 0-2 2-1 3z" fill="#00f900"/></g><g clip-path="url(#T)" opacity=".1"><path d="M167 910c1 2 3 2 4 1l19-11c1-1 2-2 1-3l-11-19c-1-2-2-2-4-1l-18 11c-2 1-2 2-1 3z" fill="#030"/></g><g clip-path="url(#U)" opacity=".1"><path d="M152 884c1 2 3 2 4 1l19-11c1-1 2-2 1-3l-11-19c-1-2-2-2-4-1l-18 11c-2 1-2 2-1 3z" fill="#00c400"/></g><g clip-path="url(#V)" opacity=".2"><path d="M122 832c1 2 3 2 4 1l19-11c1-1 2-2 1-3l-11-19c-1-2-2-2-4-1l-18 11c-2 1-2 2-1 3z" fill="#00d700"/></g><g clip-path="url(#W)" opacity=".1"><path d="M107 806c1 2 3 2 4 1l19-11c1-1 2-2 1-3l-11-19c-1-2-2-2-4-1l-18 11c-2 1-2 2-1 3z" fill="#007400"/></g><g clip-path="url(#X)" opacity=".4"><path d="M92 780c1 2 3 2 4 1l19-11c1-1 2-2 1-3l-11-19c-1-2-2-2-4-1l-18 11c-2 1-2 2-1 3z" fill="#00ca00"/></g><g clip-path="url(#Y)" opacity=".6"><path d="M77 754c1 2 3 2 4 1l19-11c1-1 2-2 1-3l-11-19c-1-2-2-2-4-1l-18 11c-2 1-2 2-1 3z" fill="#00f200"/></g><g clip-path="url(#Z)" opacity=".1"><path d="M47 702c1 2 3 2 4 1l19-11c1-1 2-2 1-3l-11-19c-1-2-2-2-4-1l-18 11c-2 1-2 2-1 3z" fill="#004000"/></g><g clip-path="url(#aa)" opacity=".1"><path d="M32 676c1 2 3 2 4 1l19-11c1-1 2-2 1-3l-11-19c-1-2-2-2-4-1l-18 11c-2 1-2 2-1 3z" fill="#006000"/></g><g clip-path="url(#ab)" opacity=".4"><path d="M17 650c1 2 3 2 4 1l19-11c1 0 2-2 1-3l-11-19c-1-2-2-2-4-1L8 628c-2 1-2 2-1 4z" fill="#008700"/></g><g clip-path="url(#ac)" opacity=".3"><path d="M-13 598c1 2 3 2 4 1l19-11c1 0 2-2 1-3L0 566c-1-2-2-2-4-1l-18 11c-2 1-2 2-1 4z" fill="#002900"/></g><g clip-path="url(#ad)" opacity=".2"><path d="M268 1025c1 1 3 2 4 1l19-11c1-1 2-2 1-4l-11-18c-1-2-2-2-4-1l-18 11c-2 0-2 2-1 3z" fill="#007f00"/></g><g clip-path="url(#ae)" opacity=".4"><path d="M253 999c1 2 3 2 4 1l19-11c1-1 2-2 1-4l-11-18c-1-2-2-2-4-1l-18 11c-2 0-2 2-1 3z" fill="#00f200"/></g><g clip-path="url(#af)" opacity=".4"><path d="M193 895c1 2 3 2 4 1l19-11c1-1 2-2 1-3l-11-19c-1-2-2-2-4-1l-18 11c-2 1-2 2-1 3z" fill="#004f00"/></g><g clip-path="url(#ag)" opacity=".4"><path d="M103 739c1 2 3 2 4 1l19-11c1-1 2-2 1-3l-11-19c-1-2-2-2-4-1l-18 11c-2 1-2 2-1 3z" fill="#009300"/></g><g clip-path="url(#ah)" opacity=".1"><path d="M88 713c1 2 3 2 4 1l19-11c1-1 2-2 1-3l-11-19c-1-2-2-2-4-1l-18 11c-2 1-2 2-1 3z" fill="#010"/></g><g clip-path="url(#ai)" opacity=".3"><path d="M73 687c1 2 3 2 4 1l19-11c1-1 2-2 1-3l-11-19c-1-2-2-2-4-1l-18 11c-2 1-2 2-1 3z" fill="#070"/></g><g clip-path="url(#aj)" opacity=".3"><path d="M43 635c1 2 3 2 4 1l19-11c1 0 2-2 1-3l-11-19c-1-2-2-2-4-1l-18 11c-2 1-2 2-1 4z" fill="#007900"/></g><g clip-path="url(#ak)" opacity=".3"><path d="M-2 557c1 2 3 2 4 1l19-11c1 0 2-2 1-3l-11-19c-1-1-2-2-4-1l-18 11c-2 1-2 2-1 4z" fill="#00a300"/></g><g clip-path="url(#al)" opacity=".1"><path d="M-17 531c1 2 3 2 4 1l19-11c1 0 2-2 1-3l-11-19c-1-1-2-2-4-1l-18 11c-2 1-2 2-1 4z" fill="#002700"/></g><g clip-path="url(#am)" opacity=".2"><path d="M294 1010c1 1 3 2 4 1l19-11c1-1 2-2 1-4l-11-18c-1-2-2-2-4-1l-18 11c-2 0-2 2-1 3z" fill="#004600"/></g><g clip-path="url(#an)" opacity=".3"><path d="M249 932c1 2 3 2 4 1l19-11c1-1 2-2 1-4l-11-18c-1-2-2-2-4-1l-18 11c-2 0-2 2-1 3z" fill="#00c800"/></g><g clip-path="url(#ao)" opacity=".1"><path d="M234 906c1 2 3 2 4 1l19-11c1-1 2-2 1-3l-11-19c-1-2-2-2-4-1l-18 11c-2 1-2 2-1 3z" fill="#009e00"/></g><g clip-path="url(#ap)" opacity=".1"><path d="M174 802c1 2 3 2 4 1l19-11c1-1 2-2 1-3l-11-19c-1-2-2-2-4-1l-18 11c-2 1-2 2-1 3z" fill="#005400"/></g><g clip-path="url(#aq)" opacity=".4"><path d="M144 750c1 2 3 2 4 1l19-11c1-1 2-2 1-3l-11-19c-1-2-2-2-4-1l-18 11c-2 1-2 2-1 3z" fill="#00c200"/></g><g clip-path="url(#ar)" opacity=".4"><path d="M114 698c1 2 3 2 4 1l19-11c1-1 2-2 1-3l-11-19c-1-2-2-2-4-1l-18 11c-2 1-2 2-1 3z" fill="#00f700"/></g><g clip-path="url(#as)" opacity=".2"><path d="M54 594c1 2 3 2 4 1l19-11c1 0 2-2 1-3l-11-19c-1-2-2-2-4-1l-18 11c-2 1-2 2-1 4z" fill="#005100"/></g><g clip-path="url(#at)" opacity=".2"><path d="M335 1021c1 1 3 2 4 1l19-11c1-1 2-2 1-4l-11-18c-1-2-2-2-4-1l-18 11c-2 0-2 2-1 3z" fill="#00ea00"/></g><g clip-path="url(#au)" opacity=".1"><path d="M230 839c1 2 3 2 4 1l19-11c1-1 2-2 1-3l-11-19c-1-2-2-2-4-1l-18 11c-2 1-2 2-1 3z" fill="#003800"/></g><g clip-path="url(#av)" opacity=".1"><path d="M215 813c1 2 3 2 4 1l19-11c1-1 2-2 1-3l-11-19c-1-2-2-2-4-1l-18 11c-2 1-2 2-1 3z" fill="#00ae00"/></g><g clip-path="url(#aw)" opacity=".3"><path d="M185 761c1 2 3 2 4 1l19-11c1-1 2-2 1-3l-11-19c-1-2-2-2-4-1l-18 11c-2 1-2 2-1 3z" fill="#008a00"/></g><g clip-path="url(#ax)" opacity=".4"><path d="M125 657c1 2 3 2 4 1l19-11c1-1 2-2 1-3l-11-19c-1-2-2-2-4-1l-18 11c-2 1-2 2-1 3z" fill="#006500"/></g><g clip-path="url(#ay)" opacity=".3"><path d="M95 605c1 2 3 2 4 1l19-11c1 0 2-2 1-3l-11-19c-1-2-2-2-4-1l-18 11c-2 1-2 2-1 4z" fill="#00e100"/></g><g clip-path="url(#az)" opacity=".3"><path d="M80 579c1 2 3 2 4 1l19-11c1 0 2-2 1-3l-11-19c-1-2-2-2-4-1l-18 11c-2 1-2 2-1 4z" fill="#00cb00"/></g><g clip-path="url(#aA)" opacity=".3"><path d="M50 527c1 2 3 2 4 1l19-11c1 0 2-2 1-3l-11-19c-1-1-2-2-4-1l-18 11c-2 1-2 2-1 4z" fill="#007500"/></g><g clip-path="url(#aB)" opacity=".1"><path d="M376 1032c1 1 2 2 4 1l19-11c1-1 2-2 1-4l-11-18c-1-2-2-2-4-1l-18 10c-2 1-2 3-1 4z" fill="#007000"/></g><g clip-path="url(#aC)" opacity=".1"><path d="M301 902c1 2 2 2 4 1l19-11c1-1 2-2 1-4l-11-18c-1-2-2-2-4-1l-18 11c-2 0-2 2-1 3z" fill="#00d700"/></g><g clip-path="url(#aD)" opacity=".4"><path d="M256 824c1 2 2 2 4 1l19-11c1-1 2-2 1-3l-11-19c-1-2-2-2-4-1l-18 11c-2 1-2 2-1 3z" fill="#008b00"/></g><g clip-path="url(#aE)" opacity=".1"><path d="M226 772c1 2 2 2 4 1l19-11c1-1 2-2 1-3l-11-19c-1-2-2-2-4-1l-18 11c-2 1-2 2-1 3z" fill="#007b00"/></g><g clip-path="url(#aF)" opacity=".3"><path d="M181 694c1 2 2 2 4 1l19-11c1-1 2-2 1-3l-11-19c-1-2-2-2-4-1l-18 11c-2 1-2 2-1 3z" fill="#00d200"/></g><g clip-path="url(#aG)" opacity=".1"><path d="M166 668c1 2 2 2 4 1l19-11c1-1 2-2 1-3l-11-19c-1-2-2-2-4-1l-18 11c-2 1-2 2-1 3z" fill="#00d800"/></g><g clip-path="url(#aH)" opacity=".4"><path d="M31 434c1 2 2 2 4 1l19-10c1-1 2-3 1-4l-11-19c-1-1-2-2-4-1l-18 11c-2 1-2 2-1 4z" fill="#00db00"/></g><g clip-path="url(#aI)" opacity=".4"><path d="M16 408c1 2 2 2 4 1l19-10c1-1 2-3 1-4l-11-19c-1-1-2-2-4-1L7 386c-2 1-2 2-1 4z" fill="#00ac00"/></g><g clip-path="url(#aJ)" opacity=".2"><path d="M-14 356c1 2 2 2 4 1l19-10c1-1 2-3 1-4l-11-19c-1-1-2-2-4-1l-18 11c-2 1-2 2-1 4z" fill="#00f600"/></g><g clip-path="url(#aK)" opacity=".3"><path d="M387 991c1 1 2 2 4 1l19-11c1-1 2-2 1-4l-11-18c-1-2-2-2-4-1l-18 11c-2 0-2 2-1 3z" fill="#003400"/></g><g clip-path="url(#aL)" opacity=".1"><path d="M357 939c1 2 2 2 4 1l19-11c1-1 2-2 1-4l-11-18c-1-2-2-2-4-1l-18 11c-2 0-2 2-1 3z" fill="#003600"/></g><g clip-path="url(#aM)" opacity=".3"><path d="M297 835c1 2 2 2 4 1l19-11c1-1 2-2 1-3l-11-19c-1-2-2-2-4-1l-18 11c-2 1-2 2-1 3z" fill="#006b00"/></g><g clip-path="url(#aN)" opacity=".3"><path d="M237 731c1 2 2 2 4 1l19-11c1-1 2-2 1-3l-11-19c-1-2-2-2-4-1l-18 11c-2 1-2 2-1 3z" fill="#004700"/></g><g clip-path="url(#aO)" opacity=".1"><path d="M192 653c1 2 2 2 4 1l19-11c1-1 2-2 1-3l-11-19c-1-2-2-2-4-1l-18 11c-2 1-2 2-1 3z" fill="#008500"/></g><g clip-path="url(#aP)" opacity=".1"><path d="M87 471c1 2 2 2 4 1l19-11c1 0 2-2 1-3l-11-19c-1-1-2-2-4-1l-18 11c-2 1-2 2-1 4z" fill="#00f100"/></g><g clip-path="url(#aQ)" opacity=".1"><path d="M57 419c1 2 2 2 4 1l19-10c1-1 2-3 1-4l-11-19c-1-1-2-2-4-1l-18 11c-2 1-2 2-1 4z" fill="#003b00"/></g><g clip-path="url(#aR)" opacity=".4"><path d="M42 393c1 2 2 2 4 1l19-10c1-1 2-3 1-4l-11-19c-1-1-2-2-4-1l-18 11c-2 1-2 2-1 4z" fill="#008600"/></g><g clip-path="url(#aS)" opacity=".3"><path d="M-3 315c1 2 2 2 4 1l19-10c1-1 2-3 1-4l-11-19c-1-1-2-2-4-1l-18 11c-2 1-2 2-1 4z" fill="#00e900"/></g><g clip-path="url(#aT)" opacity=".1"><path d="M338 846c1 2 2 2 4 1l19-11c1-1 2-2 1-3l-11-19c-1-2-2-2-4-1l-18 11c-2 1-2 2-1 3z" fill="#008900"/></g><g clip-path="url(#aU)" opacity=".2"><path d="M278 742c1 2 2 2 4 1l19-11c1-1 2-2 1-3l-11-19c-1-2-2-2-4-1l-18 11c-2 1-2 2-1 3z" fill="#00af00"/></g><g clip-path="url(#aV)" opacity=".1"><path d="M263 716c1 2 2 2 4 1l19-11c1-1 2-2 1-3l-11-19c-1-2-2-2-4-1l-18 11c-2 1-2 2-1 3z" fill="#010"/></g><g clip-path="url(#aW)" opacity=".3"><path d="M233 664c1 2 2 2 4 1l19-11c1-1 2-2 1-3l-11-19c-1-2-2-2-4-1l-18 11c-2 1-2 2-1 3z" fill="#002100"/></g><g clip-path="url(#aX)" opacity=".3"><path d="M218 638c1 2 2 2 4 1l19-11c1-1 2-2 1-3l-11-19c-1-2-2-2-4-1l-18 11c-2 1-2 2-1 3z" fill="#005800"/></g><g clip-path="url(#aY)" opacity=".3"><path d="M158 534c1 2 2 2 4 1l19-11c1 0 2-2 1-3l-11-19c-1-2-2-2-4-1l-18 11c-2 1-2 2-1 4z" fill="#004200"/></g><g clip-path="url(#aZ)" opacity=".3"><path d="M83 404c1 2 2 2 4 1l19-10c1-1 2-3 1-4l-11-19c-1-1-2-2-4-1l-18 11c-2 1-2 2-1 4z" fill="#00ab00"/></g><g clip-path="url(#ba)" opacity=".1"><path d="M53 352c1 2 2 2 4 1l19-10c1-1 2-3 1-4l-11-19c-1-1-2-2-4-1l-18 11c-2 1-2 2-1 4z" fill="#007500"/></g><g clip-path="url(#bb)" opacity=".1"><path d="M23 300c1 2 2 2 4 1l19-10c1-1 2-3 1-4l-11-19c-1-1-2-2-4-1l-18 11c-2 1-2 2-1 4z" fill="#007600"/></g><g clip-path="url(#bc)" opacity=".1"><path d="M-7 248c1 2 2 2 4 1l19-10c1-1 2-2 1-4L6 216c-1-1-2-2-4-1l-18 11c-2 1-2 2-1 4z" fill="#00d500"/></g><g clip-path="url(#bd)" opacity=".1"><path d="M379 857c1 2 2 2 4 1l19-11c1-1 2-2 1-4l-11-18c-1-2-2-2-4-1l-19 11v3z" fill="#006700"/></g><g clip-path="url(#be)" opacity=".1"><path d="M364 831c1 2 2 2 4 1l19-11c1-1 2-2 1-3l-11-19c-1-2-2-2-4-1l-19 11v3z" fill="#007800"/></g><g clip-path="url(#bf)" opacity=".2"><path d="M259 649c1 2 2 2 4 1l19-11c1-1 2-2 1-3l-11-19c-1-2-2-2-4-1l-19 11v3z" fill="#008600"/></g><g clip-path="url(#bg)" opacity=".1"><path d="M229 597c1 2 2 2 4 1l19-11c1-1 2-2 1-3l-11-19c-1-2-2-2-4-1l-19 11v3z" fill="#007f00"/></g><g clip-path="url(#bh)" opacity=".2"><path d="M214 571c1 2 2 2 4 1l19-11c1-1 2-2 1-3l-11-19c-1-2-2-2-4-1l-19 11v3z" fill="#007e00"/></g><g clip-path="url(#bi)" opacity=".1"><path d="M199 545c1 2 2 2 4 1l19-11c1 0 2-2 1-3l-11-19c-1-2-2-2-4-1l-19 11v4z" fill="#005600"/></g><g clip-path="url(#bj)" opacity=".1"><path d="M154 467c1 2 2 2 4 1l19-11c1 0 2-2 1-3l-11-19c-1-1-2-2-4-1l-19 11v4z" fill="#003200"/></g><g clip-path="url(#bk)" opacity=".2"><path d="M34 259c1 2 2 2 4 1l19-10c1-1 2-3 1-4l-11-19c-1-1-2-2-4-1l-19 11v4z" fill="#00b300"/></g><g clip-path="url(#bl)" opacity=".1"><path d="M480 972c1 1 2 2 4 1l19-11c1-1 2-2 1-4l-11-18c-1-2-2-2-4-1l-19 10-1 4z" fill="#007e00"/></g><g clip-path="url(#bm)" opacity=".2"><path d="M450 920c1 1 2 2 4 1l19-11c1-1 2-2 1-4l-11-18c-1-2-2-2-4-1l-19 11-1 3z" fill="#00c500"/></g><g clip-path="url(#bn)" opacity=".2"><path d="M405 842c1 2 2 2 4 1l19-11c1-1 2-2 1-4l-11-18c-1-2-2-2-4-1l-19 11-1 3z" fill="#002c00"/></g><g clip-path="url(#bo)" opacity=".1"><path d="M345 738c1 2 2 2 4 1l19-11c1-1 2-2 1-3l-11-19c-1-2-2-2-4-1l-19 11-1 3z" fill="#00e300"/></g><g clip-path="url(#bp)" opacity=".1"><path d="M315 686c1 2 2 2 4 1l19-11c1-1 2-2 1-3l-11-19c-1-2-2-2-4-1l-19 11-1 3z" fill="#007900"/></g><g clip-path="url(#bq)" opacity=".1"><path d="M180 452c1 2 2 2 4 1l19-11c1 0 2-2 1-3l-11-19c-1-1-2-2-4-1l-19 11-1 4z" fill="#004c00"/></g><g clip-path="url(#br)" opacity=".1"><path d="M105 322c1 2 2 2 4 1l19-10c1-1 2-3 1-4l-11-19c-1-1-2-2-4-1l-19 11-1 4z" fill="#003200"/></g><g><g clip-path="url(#bs)" opacity=".1"><path d="M90 296c1 2 2 2 4 1l19-10c1-1 2-3 1-4l-11-19c-1-1-2-2-4-1l-19 11-1 4z" fill="#004300"/></g></g><g><g clip-path="url(#bt)" opacity=".1"><path d="M897 736c1 1 2 2 4 1l19-11 1-4-11-18c-1-2-2-2-4-1l-19 10c-1 1-2 3-1 4z" fill="#004200"/></g></g><g><g clip-path="url(#bu)" opacity=".1"><path d="M867 684c1 1 2 2 4 1l19-11 1-4-11-18c-1-2-2-2-4-1l-19 10c-1 1-2 3-1 4z" fill="#009100"/></g></g><g><g clip-path="url(#bv)" opacity=".1"><path d="M822 606c1 1 2 2 4 1l19-11 1-4-11-18c-1-2-2-2-4-1l-19 11c-1 0-2 2-1 3z" fill="#030"/></g></g><g><g clip-path="url(#bw)" opacity=".1"><path d="M792 554c1 2 2 2 4 1l19-11 1-4-11-18c-1-2-2-2-4-1l-19 11c-1 0-2 2-1 3z" fill="#008500"/></g></g><g><g clip-path="url(#bx)" opacity=".2"><path d="M777 528c1 2 2 2 4 1l19-11 1-4-11-18c-1-2-2-2-4-1l-19 11c-1 0-2 2-1 3z" fill="#00f500"/></g></g><g><g clip-path="url(#by)" opacity=".2"><path d="M702 398c1 2 2 2 4 1l19-11 1-3-11-19c-1-2-2-2-4-1l-19 11c-1 1-2 2-1 3z" fill="#002f00"/></g></g><g><g clip-path="url(#bz)" opacity=".1"><path d="M612 242c1 2 2 2 4 1l19-11 1-3-11-19c-1-2-2-2-4-1l-19 11c-1 1-2 2-1 3z" fill="#00e600"/></g></g><g><g clip-path="url(#bA)" opacity=".1"><path d="M983 825c1 1 2 2 4 1l19-11v-4l-10-18c-1-2-2-2-4-1l-19 10c-1 1-2 2-1 4z" fill="#00f300"/></g></g><g><g clip-path="url(#bB)" opacity=".3"><path d="M863 617c1 1 2 2 4 1l19-11v-4l-10-18c-1-2-2-2-4-1l-19 10c-1 1-2 3-1 4z" fill="#00d400"/></g></g><g><g clip-path="url(#bC)" opacity=".3"><path d="M833 565c1 1 2 2 4 1l19-11v-4l-10-18c-1-2-2-2-4-1l-19 11c-1 0-2 2-1 3z" fill="#006500"/></g></g><g><g clip-path="url(#bD)" opacity=".1"><path d="M818 539c1 2 2 2 4 1l19-11v-4l-10-18c-1-2-2-2-4-1l-19 11c-1 0-2 2-1 3z" fill="#002e00"/></g></g><g><g clip-path="url(#bE)" opacity=".1"><path d="M803 513c1 2 2 2 4 1l19-11v-4l-10-18c-1-2-2-2-4-1l-19 11c-1 0-2 2-1 3z" fill="#007100"/></g></g><g><g clip-path="url(#bF)" opacity=".3"><path d="M889 602c1 1 2 2 4 1l18-11c2-1 2-2 1-4l-10-18c-1-2-2-2-4-1l-19 10c-1 1-2 3-1 4z" fill="#005c00"/></g></g><g><g clip-path="url(#bG)" opacity=".2"><path d="M859 550c1 1 2 2 4 1l18-11c2-1 2-2 1-4l-10-18c-1-2-2-2-4-1l-19 11c-1 0-2 2-1 3z" fill="#00c800"/></g></g><g><g clip-path="url(#bH)" opacity=".3"><path d="M784 420c1 2 2 2 4 1l18-11c2-1 2-2 1-3l-10-19c-1-2-2-2-4-1l-19 11c-1 1-2 2-1 3z" fill="#070"/></g></g><g><g clip-path="url(#bI)" opacity=".2"><path d="M754 368c1 2 2 2 4 1l18-11c2-1 2-2 1-3l-10-19c-1-2-2-2-4-1l-19 11c-1 1-2 2-1 3z" fill="green"/></g></g><g><g clip-path="url(#bJ)" opacity=".2"><path d="M664 212c1 2 2 2 4 1l18-11c2-1 2-2 1-3l-10-19c-1-2-2-2-4-1l-19 11c-1 1-2 2-1 3z" fill="#000a00"/></g></g><g><g clip-path="url(#bK)" opacity=".3"><path d="M619 134c1 2 2 2 4 1l18-11c2 0 2-2 1-3l-10-19c-1-2-2-2-4-1l-19 11c-1 1-2 2-1 4z" fill="#004300"/></g></g><g><g clip-path="url(#bL)" opacity=".1"><path d="M559 30c1 2 2 2 4 1l18-10c2-1 2-3 1-4L572-2c-1-1-2-2-4-1L549 8c-1 1-2 2-1 4z" fill="#00f300"/></g></g><g><g clip-path="url(#bM)" opacity=".4"><path d="M1005 743c1 1 2 2 4 1l18-11c2-1 2-2 1-4l-10-18c-1-2-2-2-4-1l-19 10c-1 1-2 3-1 4z" fill="#009800"/></g></g><g><g clip-path="url(#bN)" opacity=".2"><path d="M960 665c1 1 2 2 4 1l18-11c2-1 2-2 1-4l-10-18c-1-2-2-2-4-1l-19 10c-1 1-2 3-1 4z" fill="#002b00"/></g></g><g><g clip-path="url(#bO)" opacity=".2"><path d="M825 431c1 2 2 2 4 1l18-11c2-1 2-2 1-3l-10-19c-1-2-2-2-4-1l-19 11c-1 1-2 2-1 3z" fill="#00b500"/></g></g><g><g clip-path="url(#bP)" opacity=".3"><path d="M810 405c1 2 2 2 4 1l18-11c2-1 2-2 1-3l-10-19c-1-2-2-2-4-1l-19 11c-1 1-2 2-1 3z" fill="#001d00"/></g></g><g><g clip-path="url(#bQ)" opacity=".3"><path d="M795 379c1 2 2 2 4 1l18-11c2-1 2-2 1-3l-10-19c-1-2-2-2-4-1l-19 11c-1 1-2 2-1 3z" fill="#009500"/></g></g><g><g clip-path="url(#bR)" opacity=".3"><path d="M705 223c1 2 2 2 4 1l18-11c2-1 2-2 1-3l-10-19c-1-2-2-2-4-1l-19 11c-1 1-2 2-1 3z" fill="#000800"/></g></g><g><g clip-path="url(#bS)" opacity=".1"><path d="M690 197c1 2 2 2 4 1l18-11c2-1 2-2 1-3l-10-19c-1-2-2-2-4-1l-19 11c-1 1-2 2-1 3z" fill="#006e00"/></g></g><g><g clip-path="url(#bT)" opacity=".3"><path d="M675 171c1 2 2 2 4 1l18-11c2-1 2-2 1-3l-10-19c-1-2-2-2-4-1l-19 11c-1 1-2 2-1 3z" fill="#005900"/></g></g><g><g clip-path="url(#bU)" opacity=".3"><path d="M660 145c1 2 2 2 4 1l18-11c2 0 2-2 1-3l-10-19c-1-2-2-2-4-1l-19 11c-1 1-2 2-1 4z" fill="#00a200"/></g></g><g><g clip-path="url(#bV)" opacity=".1"><path d="M645 119c1 2 2 2 4 1l18-11c2 0 2-2 1-3l-10-19c-1-2-2-2-4-1l-19 11c-1 1-2 2-1 4z" fill="#00a000"/></g></g><g><g clip-path="url(#bW)" opacity=".3"><path d="M630 93c1 2 2 2 4 1l18-11c2 0 2-2 1-3l-10-19c-1-2-2-2-4-1l-19 11c-1 1-2 2-1 4z" fill="#002c00"/></g></g><g><g clip-path="url(#bX)" opacity=".1"><path d="M1001 676c1 1 2 2 4 1l18-11c2-1 2-2 1-4l-10-18c-1-2-2-2-4-1l-19 10c-1 1-2 3-1 4z" fill="#00e900"/></g></g><g><g clip-path="url(#bY)" opacity=".4"><path d="M896 494c1 2 2 2 4 1l18-11c2-1 2-2 1-4l-10-18c-1-2-2-2-4-1l-19 11c-1 0-2 2-1 3z" fill="#009100"/></g></g><g><g clip-path="url(#bZ)" opacity=".3"><path d="M881 468c1 2 2 2 4 1l18-11c2-1 2-2 1-4l-10-18c-1-2-2-2-4-1l-19 11c-1 0-2 2-1 3z" fill="#00c400"/></g></g><g><g clip-path="url(#ca)" opacity=".4"><path d="M866 442c1 2 2 2 4 1l18-11c2-1 2-2 1-4l-10-18c-1-2-2-2-4-1l-19 11c-1 0-2 2-1 3z" fill="#007c00"/></g></g><g><g clip-path="url(#cb)" opacity=".2"><path d="M746 234c1 2 2 2 4 1l18-11c2-1 2-2 1-3l-10-19c-1-2-2-2-4-1l-19 11c-1 1-2 2-1 3z" fill="#007f00"/></g></g><g><g clip-path="url(#cc)" opacity=".4"><path d="M701 156c1 2 2 2 4 1l18-11c2-1 2-2 1-3l-10-19c-1-2-2-2-4-1l-19 11c-1 1-2 2-1 3z" fill="#001200"/></g></g><g><g clip-path="url(#cd)" opacity=".1"><path d="M686 130c1 2 2 2 4 1l18-11c2 0 2-2 1-3l-10-19c-1-2-2-2-4-1l-19 11c-1 1-2 2-1 4z" fill="#00ba00"/></g></g><g><g clip-path="url(#ce)" opacity=".2"><path d="M656 78c1 2 2 2 4 1l18-11c2 0 2-2 1-3l-10-19c-1-2-2-2-4-1l-19 11c-1 1-2 2-1 4z" fill="#002800"/></g></g><g><g clip-path="url(#cf)" opacity=".2"><path d="M626 26c1 2 2 2 4 1l18-11c2 0 2-2 1-3L639-6c-1-1-2-2-4-1L616 4c-1 1-2 2-1 4z" fill="#00fc00"/></g></g><g><g clip-path="url(#cg)" opacity=".4"><path d="M997 609c1 1 2 2 4 1l18-11c2-1 2-2 1-4l-10-18c-1-2-3-2-4-1l-19 10c-1 1-2 3-1 4z" fill="#00f800"/></g></g><g><g clip-path="url(#ch)" opacity=".1"><path d="M982 583c1 1 2 2 4 1l18-11c2-1 2-2 1-4l-10-18c-1-2-3-2-4-1l-19 10c-1 1-2 3-1 4z" fill="#005200"/></g></g><g><g clip-path="url(#ci)" opacity=".2"><path d="M952 531c1 1 2 2 4 1l18-11c2-1 2-2 1-4l-10-18c-1-2-3-2-4-1l-19 11c-1 0-2 2-1 3z" fill="#001800"/></g></g><g><g clip-path="url(#cj)" opacity=".3"><path d="M937 505c1 1 2 2 4 1l18-11c2-1 2-2 1-4l-10-18c-1-2-3-2-4-1l-19 11c-1 0-2 2-1 3z" fill="#00fd00"/></g></g><g><g clip-path="url(#ck)" opacity=".1"><path d="M922 479c1 2 2 2 4 1l18-11c2-1 2-2 1-4l-10-18c-1-2-3-2-4-1l-19 11c-1 0-2 2-1 3z" fill="#00b100"/></g></g><g><g clip-path="url(#cl)" opacity=".4"><path d="M907 453c1 2 2 2 4 1l18-11c2-1 2-2 1-4l-10-18c-1-2-3-2-4-1l-19 11c-1 0-2 2-1 3z" fill="#00ac00"/></g></g><g><g clip-path="url(#cm)" opacity=".4"><path d="M877 401c1 2 2 2 4 1l18-11c2-1 2-2 1-3l-10-19c-1-2-3-2-4-1l-19 11c-1 1-2 2-1 3z" fill="#00a300"/></g></g><g><g clip-path="url(#cn)" opacity=".3"><path d="M862 375c1 2 2 2 4 1l18-11c2-1 2-2 1-3l-10-19c-1-2-3-2-4-1l-19 11c-1 1-2 2-1 3z" fill="#003200"/></g></g><g><g clip-path="url(#co)" opacity=".3"><path d="M832 323c1 2 2 2 4 1l18-11c2-1 2-2 1-3l-10-19c-1-2-3-2-4-1l-19 11c-1 1-2 2-1 3z" fill="#000300"/></g></g><g><g clip-path="url(#cp)" opacity=".2"><path d="M802 271c1 2 2 2 4 1l18-11c2-1 2-2 1-3l-10-19c-1-2-3-2-4-1l-19 11c-1 1-2 2-1 3z" fill="#00da00"/></g></g><g><g clip-path="url(#cq)" opacity=".1"><path d="M787 245c1 2 2 2 4 1l18-11c2-1 2-2 1-3l-10-19c-1-2-3-2-4-1l-19 11c-1 1-2 2-1 3z" fill="#003700"/></g></g><g><g clip-path="url(#cr)" opacity=".3"><path d="M757 193c1 2 2 2 4 1l18-11c2-1 2-2 1-3l-10-19c-1-2-3-2-4-1l-19 11c-1 1-2 2-1 3z" fill="#00ed00"/></g></g><g><g clip-path="url(#cs)" opacity=".3"><path d="M697 89c1 2 2 2 4 1l18-11c2 0 2-2 1-3l-10-19c-1-2-3-2-4-1l-19 11c-1 1-2 2-1 4z" fill="#004c00"/></g></g><g><g clip-path="url(#ct)" opacity=".2"><path d="M667 37c1 2 2 2 4 1l18-11c2 0 2-2 1-3L680 5c-1-1-3-2-4-1l-19 11c-1 1-2 2-1 4z" fill="#004000"/></g></g><g><g clip-path="url(#cu)" opacity=".1"><path d="M993 542c1 1 2 2 4 1l18-11c2-1 2-2 1-4l-10-18c-1-2-3-2-4-1l-19 10c-1 1-2 3-1 4z" fill="#00e500"/></g></g><g><g clip-path="url(#cv)" opacity=".1"><path d="M978 516c1 1 2 2 4 1l18-11c2-1 2-2 1-4l-10-18c-1-2-3-2-4-1l-19 11c-1 0-2 2-1 3z" fill="#00ba00"/></g></g><g><g clip-path="url(#cw)" opacity=".4"><path d="M963 490c1 1 2 2 4 1l18-11c2-1 2-2 1-4l-10-18c-1-2-3-2-4-1l-19 11c-1 0-2 2-1 3z" fill="#007b00"/></g></g><g><g clip-path="url(#cx)" opacity=".4"><path d="M858 308c1 2 2 2 4 1l18-11c2-1 2-2 1-3l-10-19c-1-2-3-2-4-1l-19 11c-1 1-2 2-1 3z" fill="#009000"/></g></g><g><g clip-path="url(#cy)" opacity=".4"><path d="M828 256c1 2 2 2 4 1l18-11c2-1 2-2 1-3l-10-19c-1-2-3-2-4-1l-19 11c-1 1-2 2-1 3z" fill="#008600"/></g></g><g><g clip-path="url(#cz)" opacity=".4"><path d="M813 230c1 2 2 2 4 1l18-11c2-1 2-2 1-3l-10-19c-1-2-3-2-4-1l-19 11c-1 1-2 2-1 3z" fill="#0b0"/></g></g><g><g clip-path="url(#cA)" opacity=".3"><path d="M738 100c1 2 2 2 4 1l18-11c2 0 2-2 1-3l-10-19c-1-2-3-2-4-1l-19 11c-1 1-2 2-1 4z" fill="#002a00"/></g></g><g><g clip-path="url(#cB)" opacity=".3"><path d="M708 48c1 2 2 2 4 1l18-11c2 0 2-2 1-3l-10-19c-1-2-3-2-4-1l-19 11c-1 1-2 2-1 4z" fill="#0f0"/></g></g><g><g clip-path="url(#cC)" opacity=".2"><path d="M1004 501c1 1 2 2 4 1l18-11c2-1 2-2 1-4l-10-18c-1-2-3-2-4-1l-19 11c-1 0-2 2-1 3z" fill="#003200"/></g></g><g><g clip-path="url(#cD)" opacity=".3"><path d="M974 449c1 2 2 2 4 1l18-11c2-1 2-2 1-4l-10-18c-1-2-3-2-4-1l-19 11c-1 0-2 2-1 3z" fill="#00e700"/></g></g><g><g clip-path="url(#cE)" opacity=".4"><path d="M959 423c1 2 2 2 4 1l18-11c2-1 2-2 1-4l-10-18c-1-2-3-2-4-1l-19 11c-1 0-2 2-1 3z" fill="#00ad00"/></g></g><g><g clip-path="url(#cF)" opacity=".1"><path d="M914 345c1 2 2 2 4 1l18-11c2-1 2-2 1-3l-10-19c-1-2-3-2-4-1l-19 11c-1 1-2 2-1 3z" fill="#00a800"/></g></g><g><g clip-path="url(#cG)" opacity=".3"><path d="M809 163c1 2 2 2 4 1l18-11c2-1 2-2 1-3l-10-19c-1-2-3-2-4-1l-19 11c-1 1-2 2-1 3z" fill="#00a700"/></g></g><g><g clip-path="url(#cH)" opacity=".1"><path d="M764 85c1 2 2 2 4 1l18-11c2 0 2-2 1-3l-10-19c-1-2-3-2-4-1l-19 11c-1 1-2 2-1 4z" fill="#00d000"/></g></g><g><g clip-path="url(#cI)" opacity=".1"><path d="M749 59c1 2 2 2 4 1l18-11c2 0 2-2 1-3l-10-19c-1-2-3-2-4-1l-19 11c-1 1-2 2-1 4z" fill="#00e400"/></g></g><g><g clip-path="url(#cJ)" opacity=".1"><path d="M719 7c1 2 2 2 4 1l18-11c2 0 2-2 1-3l-10-19c-1-1-3-2-4-1l-19 11c-1 1-2 2-1 4z" fill="#003800"/></g></g><g><g clip-path="url(#cK)" opacity=".5"><path d="M1000 434c1 2 2 2 4 1l18-11c2-1 2-2 1-4l-10-18c-1-2-3-2-4-1l-19 11c-1 0-2 2-1 3z" fill="#009000"/></g></g><g><g clip-path="url(#cL)" opacity=".1"><path d="M985 408c1 2 2 2 4 1l18-11c2-1 2-2 1-4l-10-18c-1-2-3-2-4-1l-19 11c-1 0-2 2-1 3z" fill="#004500"/></g></g><g><g clip-path="url(#cM)" opacity=".6"><path d="M970 382c1 2 2 2 4 1l18-11c2-1 2-2 1-4l-10-18c-1-2-3-2-4-1l-19 11c-1 0-2 2-1 3z" fill="#003400"/></g></g><g><g clip-path="url(#cN)" opacity=".4"><path d="M955 356c1 2 2 2 4 1l18-11c2-1 2-2 1-3l-10-19c-1-2-3-2-4-1l-19 11c-1 1-2 2-1 3z" fill="#007400"/></g></g><g><g clip-path="url(#cO)" opacity=".1"><path d="M940 330c1 2 2 2 4 1l18-11c2-1 2-2 1-3l-10-19c-1-2-3-2-4-1l-19 11c-1 1-2 2-1 3z" fill="#009d00"/></g></g><g><g clip-path="url(#cP)" opacity=".1"><path d="M925 304c1 2 2 2 4 1l18-11c2-1 2-2 1-3l-10-19c-1-2-3-2-4-1l-19 11c-1 1-2 2-1 3z" fill="#00c900"/></g></g><g><g clip-path="url(#cQ)" opacity=".1"><path d="M895 252c1 2 2 2 4 1l18-11c2-1 2-2 1-3l-10-19c-1-2-3-2-4-1l-19 11c-1 1-2 2-1 3z" fill="#0f0"/></g></g><g><g clip-path="url(#cR)" opacity=".6"><path d="M850 174c1 2 2 2 4 1l18-11c2-1 2-2 1-3l-10-19c-1-2-3-2-4-1l-19 11c-1 1-2 2-1 3z" fill="#001700"/></g></g><g><g clip-path="url(#cS)" opacity=".3"><path d="M820 122c1 2 2 2 4 1l18-11c2-1 2-2 1-3l-10-19c-1-2-3-2-4-1l-19 11c-1 1-2 2-1 3z" fill="#002b00"/></g></g><g><g clip-path="url(#cT)" opacity=".4"><path d="M805 96c1 2 2 2 4 1l18-11c2-1 2-2 1-3l-10-19c-1-2-3-2-4-1l-19 11c-1 1-2 2-1 3z"/></g></g><g><g clip-path="url(#cU)" opacity=".1"><path d="M775 44c1 2 2 2 4 1l18-11c2 0 2-2 1-3l-10-19c-1-2-3-2-4-1l-19 11c-1 1-2 2-1 4z" fill="#008d00"/></g></g><g><g clip-path="url(#cV)" opacity=".1"><path d="M760 18c1 2 2 2 4 1l18-11c2 0 2-2 1-3l-10-19c-1-2-3-2-4-1L750-4c-1 1-2 2-1 4z" fill="#004800"/></g></g><g><g clip-path="url(#cW)" opacity=".1"><path d="M981 341c1 2 2 2 4 1l18-11c2-1 2-2 1-3l-10-19c-1-2-3-2-4-1l-19 11c-1 1-2 2-1 3z" fill="#003500"/></g></g><g><g clip-path="url(#cX)" opacity=".6"><path d="M966 315c1 2 2 2 4 1l18-11c2-1 2-2 1-3l-10-19c-1-2-3-2-4-1l-19 11c-1 1-2 2-1 3z" fill="#00bd00"/></g></g><g><g clip-path="url(#cY)" opacity=".4"><path d="M951 289c1 2 2 2 4 1l18-11c2-1 2-2 1-3l-10-19c-1-2-3-2-4-1l-19 11c-1 1-2 2-1 3z" fill="#007300"/></g></g><g><g clip-path="url(#cZ)" opacity=".3"><path d="M921 237c1 2 2 2 4 1l18-11c2-1 2-2 1-3l-10-19c-1-2-3-2-4-1l-19 11c-1 1-2 2-1 3z" fill="#009500"/></g></g><g><g clip-path="url(#da)" opacity=".2"><path d="M861 133c1 2 2 2 4 1l18-11c2-1 2-2 1-3l-10-19c-1-2-3-2-4-1l-19 11c-1 1-2 2-1 3z" fill="#003200"/></g></g><g><g clip-path="url(#db)" opacity=".4"><path d="M846 107c1 2 2 2 4 1l18-11c2-1 2-2 1-3l-10-19c-1-2-3-2-4-1l-19 11c-1 1-2 2-1 3z" fill="#00b100"/></g></g><g><g clip-path="url(#dc)" opacity=".1"><path d="M831 81c1 2 2 2 4 1l18-11c2-1 2-2 1-3l-10-19c-1-2-3-2-4-1l-19 11c-1 1-2 2-1 3z" fill="#004600"/></g></g><g><g clip-path="url(#dd)" opacity=".1"><path d="M816 55c1 2 2 2 4 1l18-11c2 0 2-2 1-3l-10-19c-1-2-3-2-4-1l-19 11c-1 1-2 2-1 4z" fill="#00c700"/></g></g><g><g clip-path="url(#de)" opacity=".3"><path d="M801 29c1 2 2 2 4 1l18-11c2 0 2-2 1-3L814-3c-1-2-3-2-4-1L791 7c-1 1-2 2-1 4z" fill="#008f00"/></g></g><g><g clip-path="url(#df)" opacity=".1"><path d="M1007 326c1 2 2 2 4 1l18-11c2-1 2-2 1-3l-10-19c-1-2-3-2-4-1l-19 11c-1 1-2 2-1 3z" fill="#008400"/></g></g><g><g clip-path="url(#dg)" opacity=".4"><path d="M977 274c1 2 2 2 4 1l18-11c2-1 2-2 1-3l-10-19c-1-2-3-2-4-1l-19 11c-1 1-2 2-1 3z" fill="#002900"/></g></g><g><g clip-path="url(#dh)" opacity=".5"><path d="M947 222c1 2 2 2 4 1l18-11c2-1 2-2 1-3l-10-19c-1-2-3-2-4-1l-19 11c-1 1-2 2-1 3z" fill="#005b00"/></g></g><g><g clip-path="url(#di)" opacity=".5"><path d="M932 196c1 2 2 2 4 1l18-11c2-1 2-2 1-3l-10-19c-1-2-3-2-4-1l-19 11c-1 1-2 2-1 3z" fill="#00dc00"/></g></g><g><g clip-path="url(#dj)" opacity=".6"><path d="M917 170c1 2 2 2 4 1l18-11c2-1 2-2 1-3l-10-19c-1-2-3-2-4-1l-19 11c-1 1-2 2-1 3z" fill="#003900"/></g></g><g><g clip-path="url(#dk)" opacity=".1"><path d="M902 144c1 2 2 2 4 1l18-11c2-1 2-2 1-3l-10-19c-1-2-3-2-4-1l-19 11c-1 1-2 2-1 3z" fill="#00a900"/></g></g><g><g clip-path="url(#dl)" opacity=".6"><path d="M872 92c1 2 2 2 4 1l18-11c2-1 2-2 1-3l-10-19c-1-2-3-2-4-1l-19 11c-1 1-2 2-1 3z" fill="#00b700"/></g></g><g><g clip-path="url(#dm)" opacity=".2"><path d="M842 40c1 2 2 2 4 1l18-11c2 0 2-2 1-3L855 8c-1-2-3-2-4-1l-19 11c-1 1-2 2-1 4z" fill="#004900"/></g></g><g><g clip-path="url(#dn)" opacity=".6"><path d="M827 14c1 2 2 2 4 1l18-11c2 0 2-2 1-3l-10-19c-1-2-3-2-4-1L817-8c-1 1-2 2-1 4z" fill="#00ae00"/></g></g><g><g clip-path="url(#do)" opacity=".2"><path d="M1003 259c1 2 2 2 4 1l18-11c2-1 2-2 1-3l-10-19c-1-2-3-2-4-1l-19 11c-1 1-2 2-1 3z" fill="#00f400"/></g></g><g><g clip-path="url(#dp)" opacity=".1"><path d="M988 233c1 2 2 2 4 1l18-11c2-1 2-2 1-3l-10-19c-1-2-3-2-4-1l-19 11c-1 1-2 2-1 3z" fill="#00a200"/></g></g><g><g clip-path="url(#dq)" opacity=".1"><path d="M958 181c1 2 2 2 4 1l18-11c2-1 2-2 1-3l-10-19c-1-2-3-2-4-1l-19 11c-1 1-2 2-1 3z" fill="#000300"/></g></g><g><g clip-path="url(#dr)" opacity=".6"><path d="M943 155c1 2 2 2 4 1l18-11c2-1 2-2 1-3l-10-19c-1-2-3-2-4-1l-19 11c-1 1-2 2-1 3z" fill="#000c00"/></g></g><g><g clip-path="url(#ds)" opacity=".4"><path d="M928 129c1 2 2 2 4 1l18-11c2-1 2-2 1-3l-10-19c-1-2-3-2-4-1l-19 11c-1 1-2 2-1 3z" fill="#00e800"/></g></g><g><g clip-path="url(#dt)" opacity=".2"><path d="M913 103c1 2 2 2 4 1l18-11c2-1 2-2 1-3l-10-19c-1-2-3-2-4-1l-19 11c-1 1-2 2-1 3z" fill="#005000"/></g></g><g><g clip-path="url(#du)" opacity=".4"><path d="M898 77c1 2 2 2 4 1l18-11c2-1 2-2 1-3l-10-19c-1-2-3-2-4-1l-19 11c-1 1-2 2-1 3z" fill="#007b00"/></g></g><g><g clip-path="url(#dv)" opacity=".6"><path d="M853-1c1 2 2 2 4 1l18-11c2 0 2-2 1-3l-10-19c-1-2-3-2-4-1l-19 11c-1 1-2 2-1 4z" fill="#009b00"/></g></g><g><g clip-path="url(#dw)" opacity=".4"><path d="M999 192c1 2 2 2 4 1l18-11c2-1 2-2 1-3l-11-19c0-2-2-2-3-1l-19 11c-1 1-2 2-1 3z" fill="#00ea00"/></g></g><g><g clip-path="url(#dx)" opacity=".3"><path d="M924 62c1 2 2 2 4 1l18-11c2-1 2-2 1-3l-11-19c0-2-2-2-3-1l-19 11c-1 1-2 2-1 3z" fill="#009700"/></g></g><g><g clip-path="url(#dy)" opacity=".6"><path d="M894 10c1 2 2 2 4 1l18-11c2 0 2-2 1-3l-11-19c0-2-2-2-3-1l-19 11c-1 1-2 2-1 4z" fill="#004900"/></g></g><g><g clip-path="url(#dz)" opacity=".6"><path d="M1010 151c1 2 2 2 4 1l18-11c2-1 2-2 1-3l-11-19c0-2-2-2-3-1l-19 11c-1 1-2 2-1 3z" fill="#004300"/></g></g><g><g clip-path="url(#dA)" opacity=".3"><path d="M995 125c1 2 2 2 4 1l18-11c2-1 2-2 1-3l-11-19c0-2-2-2-3-1l-19 11c-1 1-2 2-1 3z" fill="#005700"/></g></g><g><g clip-path="url(#dB)" opacity=".4"><path d="M980 99c1 2 2 2 4 1l18-11c2-1 2-2 1-3l-11-19c0-2-2-2-3-1l-19 11c-1 1-2 2-1 3z" fill="#00b200"/></g></g><g><g clip-path="url(#dC)" opacity=".1"><path d="M950 47c1 2 2 2 4 1l18-11c2-1 2-2 1-3l-11-19c0-2-2-2-3-1l-19 11c-1 1-2 2-1 3z" fill="#00c100"/></g></g><g><g clip-path="url(#dD)" opacity=".4"><path d="M935 21c1 2 2 2 4 1l18-11c2-1 2-2 1-3l-11-19c0-2-2-2-3-1L925-1c-1 1-2 2-1 3z" fill="#003000"/></g></g><g><g clip-path="url(#dE)" opacity=".6"><path d="M1006 84c1 2 2 2 4 1l18-11c2-1 2-2 1-3l-11-19c0-2-2-2-3-1l-19 11c-2 1-2 2-1 3z" fill="#002e00"/></g></g><g><g clip-path="url(#dF)" opacity=".8"><path d="M991 58c1 2 2 2 4 1l18-11c2-1 2-2 1-3l-11-19c0-2-2-2-3-1l-19 11c-2 1-2 2-1 3z" fill="#001500"/></g></g><g><g clip-path="url(#dG)" opacity=".7"><path d="M976 32c1 2 2 2 4 1l18-11c2-1 2-2 1-3L988 0c0-2-2-2-3-1l-19 11c-2 1-2 2-1 3z" fill="#00de00"/></g></g><g><g clip-path="url(#dH)" opacity=".6"><path d="M961 6c1 2 2 2 4 1l18-11c2-1 2-2 1-3l-11-19c0-2-2-2-3-1l-19 11c-2 1-2 2-1 3z" fill="#002100"/></g></g><g><g clip-path="url(#dI)" opacity=".9"><path d="M1002 17c1 2 2 2 4 1l18-11c2-1 2-2 1-3l-11-19c0-2-2-2-3-1L992-5c-2 1-2 2-1 3z" fill="#006700"/></g></g></g></svg>