<svg width="230" height="47" fill="none" xmlns="http://www.w3.org/2000/svg"><path stroke="#fff" stroke-linecap="round" d="M39.4 33.2L35 8.6M1.5 19.8L4 34.2M42.4 27.4L39.9 13"/><path stroke="#fff" stroke-miterlimit="2.6" stroke-linecap="round" d="M4.5 14l4.4 24.6"/><path d="M11.5 27.5a1 1 0 01.8-1.2L32 23a1 1 0 011.1.8l3 16.7c0 .6-.3 1-.8 1.2L15.6 45a1 1 0 01-1.2-.8l-3-16.7z" fill="#7BA767"/><rect x="7.1" y="5.4" width="23" height="41" rx="3.5" transform="rotate(-10 7 5.4)" stroke="#fff"/><path d="M24.2 13l-1.8 7.5 4-.7-8.6 14.7L20 24l-3 .5.3-10.2 6.9-1.2z" fill="#fff"/><path stroke="#fff" stroke-width="2" stroke-linecap="round" d="M15.4 3.4l5.9-1"/><path stroke="#fff" d="M11.4 27L33 23.2"/><path d="M51.9 37V12h16V16H56.4v6.2h10.3v3.7H56.4v7.3h12.4V37H51.9zm28.4.4a32 32 0 01-7.5-.8V18.4l1.4-.2L76 18a28.5 28.5 0 014.3-.3c2.5 0 4.5.5 5.9 1.4 1.4 1 2.1 2.2 2.1 3.9a4.2 4.2 0 01-2.3 3.8c.8.3 1.6.9 2.2 1.6.6.7 1 1.7 1 3a5 5 0 01-2.3 4.4 12 12 0 01-6.6 1.6zm0-11.7c1.1 0 2-.1 2.7-.4.8-.3 1.1-1 1.1-2 0-.4-.1-.7-.3-1l-1-.7a11.2 11.2 0 00-3-.4 36.9 36.9 0 00-2.7.1v4.4h3.3zm-3.2 8a17.4 17.4 0 006.5-.3c.8-.4 1.3-1 1.3-2s-.4-1.7-1.2-2c-.8-.5-1.8-.6-3-.6H77v5zm28.7-6a7 7 0 00-1.4-4.6c-.8-1-2.2-1.6-4.2-1.6a12.4 12.4 0 00-2.6.3v10.8l1.5.7c.7.2 1.4.4 2 .4 1.7 0 2.8-.6 3.5-1.7.8-1 1.2-2.5 1.2-4.3zm4.4-.1a13 13 0 01-.6 4 9 9 0 01-1.5 3 7 7 0 01-2.7 2 8.8 8.8 0 01-7.8-.3v7.4h-4.3v-25a34.7 34.7 0 017.3-1c1.5 0 2.9.3 4 .8a8 8 0 013 2c.9.8 1.5 1.8 2 3 .4 1.2.6 2.6.6 4.1zm21.5 0c0 1.5-.2 2.8-.6 4a8.2 8.2 0 01-4.7 5.1c-1.1.6-2.4.8-3.7.8a8.3 8.3 0 01-6.5-2.7c-.8-.9-1.4-2-1.9-3.2-.4-1.2-.6-2.5-.6-4s.2-2.9.6-4a8.2 8.2 0 014.8-5.1 9 9 0 013.6-.8 9 9 0 016.5 2.7 9 9 0 011.9 3.1c.4 1.2.6 2.6.6 4zm-4.4 0c0-1.9-.4-3.4-1.2-4.5-.8-1-2-1.6-3.4-1.6a4 4 0 00-3.4 1.6c-.8 1.1-1.2 2.6-1.2 4.5s.4 3.4 1.2 4.5a4 4 0 003.4 1.6c1.4 0 2.6-.5 3.4-1.6a7.4 7.4 0 001.2-4.5zm7.9 0c0-1.4.2-2.7.6-3.9a8.7 8.7 0 014.8-5.3 13.2 13.2 0 019 .2l-1 3.6a9.8 9.8 0 00-3.7-.7c-1.7 0-3 .5-4 1.6-.8 1-1.3 2.6-1.3 4.5s.5 3.4 1.3 4.5c.8 1 2.3 1.6 4.3 1.6a11.2 11.2 0 004-.8l.6 3.6a15.2 15.2 0 01-5.2 1c-1.6 0-3-.3-4.2-.8a8.5 8.5 0 01-3-2c-.7-.9-1.3-2-1.6-3.1-.4-1.3-.6-2.6-.6-4zm25.5 9.8a32 32 0 01-7.5-.8V18.4l1.5-.2 1.8-.2a28.5 28.5 0 014.2-.3c2.5 0 4.5.5 6 1.4 1.4 1 2 2.2 2 3.9a4.2 4.2 0 01-2.3 3.8c.9.3 1.6.9 2.3 1.6.6.7.9 1.7.9 3a5 5 0 01-2.2 4.4 12 12 0 01-6.7 1.6zm.1-11.7c1 0 2-.1 2.7-.4.7-.3 1-1 1-2 0-.4 0-.7-.3-1-.2-.3-.5-.5-1-.7-.3-.2-.7-.3-1.2-.3l-1.6-.1a36.9 36.9 0 00-2.9.1v4.4h3.3zm-3.3 8a17.4 17.4 0 006.5-.3c.9-.4 1.3-1 1.3-2s-.4-1.7-1.2-2c-.8-.5-1.8-.6-3-.6h-3.6v5zM182 30H180.3a41 41 0 00-3.9 7H172a42 42 0 014.4-7.8c-1.1-.5-2-1.2-2.6-2-.5-.9-.7-1.9-.7-3 0-1 .1-2 .5-2.8.4-.8 1-1.5 1.7-2 .7-.6 1.6-1 2.6-1.2 1-.3 2.1-.5 3.4-.5a32.5 32.5 0 017.3.9V37h-4.3v-7H182zm2.2-8.7H183l-1.7-.1c-2.7 0-4 1-4 3 0 .4 0 .9.3 1.2.2.4.5.7.8.9l1.3.4 1.5.1h3v-5.5zm9-2.6a11.2 11.2 0 012.7-.6 17.3 17.3 0 013.5-.4l3 .3c.8.2 1.7.5 2.4 1a5 5 0 011.6 1.6c.4.7.7 1.5.7 2.4a4 4 0 01-.9 2.6c-.5.7-1.2 1.2-1.9 1.5 1.1.4 2 1 2.5 1.8.6.8.9 1.8.9 3 0 1-.2 1.9-.7 2.6a5 5 0 01-1.7 1.7c-.7.4-1.6.8-2.6 1a19.8 19.8 0 01-10-.8l.9-3.6 2.2.7c1 .2 2.1.3 3.5.3 2.7 0 4-.7 4-2.3 0-.5-.1-1-.4-1.3-.2-.3-.5-.6-.9-.8-.3-.2-.8-.3-1.2-.3l-1.3-.1h-3.6v-3.3h3.5a5 5 0 002.3-.4c.6-.4 1-1 1-1.8 0-.6-.3-1.2-1-1.5-.6-.5-1.4-.7-2.5-.7l-1.5.1a14.6 14.6 0 00-3.6.9l-.8-3.6zm23.3 6.4l1.5-.2 2.1-.1c1.1 0 2.1 0 3 .3 1 .3 1.8.6 2.5 1.2.7.5 1.3 1.1 1.7 2 .4.7.6 1.7.6 2.8 0 1.1-.2 2-.6 2.9a5 5 0 01-1.6 2c-.8.4-1.6.8-2.6 1-1 .3-2.1.4-3.3.4a34 34 0 01-7.7-.9V18.2h4.4v7zm3.2 8.9a5 5 0 002.8-.7c.7-.5 1-1.2 1-2.3 0-.5 0-1-.3-1.3-.2-.4-.5-.7-1-.9l-1.2-.5-1.6-.1a18.3 18.3 0 00-3 .2v5.4a20.4 20.4 0 003.3.2z" fill="#fff"/></svg>