<svg version="1" xmlns="http://www.w3.org/2000/svg" width="309.333" height="309.333" viewBox="0 0 232.000000 232.000000"><path d="M36.8 32.6c-6 3.2-5.8.5-5.8 80.4 0 80.2-.2 77.3 6 80.5 2.4 1.2 8.3 1.5 35.5 1.5H105v-6H72.7c-30.1 0-32.5-.1-34-1.8-1.6-1.7-1.7-8.3-1.7-74.4 0-69 .1-72.6 1.8-74.1s7-1.7 55-1.7h53.1l1.5 2.2c1.1 1.5 1.6 4.5 1.6 8.5V54h6v-6.6c0-7.7-1.8-12.3-5.9-14.7-2.6-1.5-7.8-1.7-56.8-1.7-45.6.1-54.2.3-56.5 1.6z"/><path d="M71.4 43.5c-.8 2.1.2 4.5 1.9 4.5.8 0 2-.7 2.7-1.5 1-1.2 1-1.8 0-3-.7-.8-1.9-1.5-2.7-1.5-.7 0-1.6.7-1.9 1.5zM83.2 42.9c-.8.5-1.2 1.7-1 2.7.3 1.7 1.5 1.9 11.1 2.2 8.9.2 10.8 0 11.3-1.3 1.3-3.4-1.4-4.5-11-4.5-5 0-9.7.4-10.4.9zM117.5 59.9c-1.1.5-3.1 2.1-4.5 3.6l-2.5 2.7-.3 62.4c-.3 69-.5 66.4 6.1 70.5 3.1 1.8 4.9 1.9 40.4 1.7l37.3-.3 3.2-3.3 3.3-3.2V66l-3.3-3.2-3.2-3.3-37.3-.2c-20.4-.1-38.1.2-39.2.6zM193 67c2 2 2 3.3 2 63s0 61-2 63c-1.9 1.9-3.3 2-37.5 2s-35.6-.1-37.5-2c-2-2-2-3.3-2-63s0-61 2-63c1.9-1.9 3.3-2 37.5-2s35.6.1 37.5 2z"/><path d="M147.8 71.7c-.6.7-.8 2-.4 2.8.5 1.3 2 1.5 8.3 1.3 7-.3 7.8-.5 7.8-2.3 0-1.8-.8-2.1-7.3-2.5-5.2-.4-7.7-.1-8.4.7zM136.4 72.5c-.4.9-.2 2.1.4 2.7 1.5 1.5 4.4.1 4-1.9-.4-2.3-3.6-2.9-4.4-.8zM151.6 179.6c-3.5 3.5-1.2 9.4 3.7 9.4 4 0 5.7-1.5 5.7-5.1 0-3.4-2.4-5.9-5.5-5.9-1.3 0-3.1.7-3.9 1.6zM90.2 170.6c-4.2 2.9-1.8 10.4 3.5 10.4 4.9 0 7.2-7.6 3.1-10.4-1.2-.9-2.7-1.6-3.3-1.6-.6 0-2.1.7-3.3 1.6z"/></svg>